<?xml version="1.0" encoding="utf-8" standalone="no"?>
<!DOCTYPE svg PUBLIC "-//W3C//DTD SVG 1.1//EN"
  "http://www.w3.org/Graphics/SVG/1.1/DTD/svg11.dtd">
<svg xmlns:xlink="http://www.w3.org/1999/xlink" width="1224pt" height="374.4pt" viewBox="0 0 1224 374.4" xmlns="http://www.w3.org/2000/svg" version="1.1">
 <metadata>
  <rdf:RDF xmlns:dc="http://purl.org/dc/elements/1.1/" xmlns:cc="http://creativecommons.org/ns#" xmlns:rdf="http://www.w3.org/1999/02/22-rdf-syntax-ns#">
   <cc:Work>
    <dc:type rdf:resource="http://purl.org/dc/dcmitype/StillImage"/>
    <dc:date>2026-04-09T20:03:45.596980</dc:date>
    <dc:format>image/svg+xml</dc:format>
    <dc:creator>
     <cc:Agent>
      <dc:title>Matplotlib v3.10.8, https://matplotlib.org/</dc:title>
     </cc:Agent>
    </dc:creator>
   </cc:Work>
  </rdf:RDF>
 </metadata>
 <defs>
  <style type="text/css">*{stroke-linejoin: round; stroke-linecap: butt}</style>
 </defs>
 <g id="figure_1">
  <g id="patch_1">
   <path d="M 0 374.4 
L 1224 374.4 
L 1224 0 
L 0 0 
z
" style="fill: #ffffff"/>
  </g>
  <g id="axes_1">
   <g id="patch_2">
    <path d="M 47.81 332.44 
L 396.435 332.44 
L 396.435 66.48 
L 47.81 66.48 
z
" style="fill: #ffffff"/>
   </g>
   <g id="matplotlib.axis_1">
    <g id="xtick_1">
     <g id="line2d_1">
      <defs>
       <path id="m23eb92b213" d="M 0 0 
L 0 3.5 
" style="stroke: #000000; stroke-width: 0.8"/>
      </defs>
      <g>
       <use xlink:href="#m23eb92b213" x="47.81" y="332.44" style="stroke: #000000; stroke-width: 0.8"/>
      </g>
     </g>
     <g id="text_1">
      <!-- 0.0 -->
      <g transform="translate(39.858438 347.038437) scale(0.1 -0.1)">
       <defs>
        <path id="DejaVuSans-30" d="M 2034 4250 
Q 1547 4250 1301 3770 
Q 1056 3291 1056 2328 
Q 1056 1369 1301 889 
Q 1547 409 2034 409 
Q 2525 409 2770 889 
Q 3016 1369 3016 2328 
Q 3016 3291 2770 3770 
Q 2525 4250 2034 4250 
z
M 2034 4750 
Q 2819 4750 3233 4129 
Q 3647 3509 3647 2328 
Q 3647 1150 3233 529 
Q 2819 -91 2034 -91 
Q 1250 -91 836 529 
Q 422 1150 422 2328 
Q 422 3509 836 4129 
Q 1250 4750 2034 4750 
z
" transform="scale(0.015625)"/>
        <path id="DejaVuSans-2e" d="M 684 794 
L 1344 794 
L 1344 0 
L 684 0 
L 684 794 
z
" transform="scale(0.015625)"/>
       </defs>
       <use xlink:href="#DejaVuSans-30"/>
       <use xlink:href="#DejaVuSans-2e" transform="translate(63.623047 0)"/>
       <use xlink:href="#DejaVuSans-30" transform="translate(95.410156 0)"/>
      </g>
     </g>
    </g>
    <g id="xtick_2">
     <g id="line2d_2">
      <g>
       <use xlink:href="#m23eb92b213" x="117.535" y="332.44" style="stroke: #000000; stroke-width: 0.8"/>
      </g>
     </g>
     <g id="text_2">
      <!-- 0.2 -->
      <g transform="translate(109.583437 347.038437) scale(0.1 -0.1)">
       <defs>
        <path id="DejaVuSans-32" d="M 1228 531 
L 3431 531 
L 3431 0 
L 469 0 
L 469 531 
Q 828 903 1448 1529 
Q 2069 2156 2228 2338 
Q 2531 2678 2651 2914 
Q 2772 3150 2772 3378 
Q 2772 3750 2511 3984 
Q 2250 4219 1831 4219 
Q 1534 4219 1204 4116 
Q 875 4013 500 3803 
L 500 4441 
Q 881 4594 1212 4672 
Q 1544 4750 1819 4750 
Q 2544 4750 2975 4387 
Q 3406 4025 3406 3419 
Q 3406 3131 3298 2873 
Q 3191 2616 2906 2266 
Q 2828 2175 2409 1742 
Q 1991 1309 1228 531 
z
" transform="scale(0.015625)"/>
       </defs>
       <use xlink:href="#DejaVuSans-30"/>
       <use xlink:href="#DejaVuSans-2e" transform="translate(63.623047 0)"/>
       <use xlink:href="#DejaVuSans-32" transform="translate(95.410156 0)"/>
      </g>
     </g>
    </g>
    <g id="xtick_3">
     <g id="line2d_3">
      <g>
       <use xlink:href="#m23eb92b213" x="187.26" y="332.44" style="stroke: #000000; stroke-width: 0.8"/>
      </g>
     </g>
     <g id="text_3">
      <!-- 0.4 -->
      <g transform="translate(179.308437 347.038437) scale(0.1 -0.1)">
       <defs>
        <path id="DejaVuSans-34" d="M 2419 4116 
L 825 1625 
L 2419 1625 
L 2419 4116 
z
M 2253 4666 
L 3047 4666 
L 3047 1625 
L 3713 1625 
L 3713 1100 
L 3047 1100 
L 3047 0 
L 2419 0 
L 2419 1100 
L 313 1100 
L 313 1709 
L 2253 4666 
z
" transform="scale(0.015625)"/>
       </defs>
       <use xlink:href="#DejaVuSans-30"/>
       <use xlink:href="#DejaVuSans-2e" transform="translate(63.623047 0)"/>
       <use xlink:href="#DejaVuSans-34" transform="translate(95.410156 0)"/>
      </g>
     </g>
    </g>
    <g id="xtick_4">
     <g id="line2d_4">
      <g>
       <use xlink:href="#m23eb92b213" x="256.985" y="332.44" style="stroke: #000000; stroke-width: 0.8"/>
      </g>
     </g>
     <g id="text_4">
      <!-- 0.6 -->
      <g transform="translate(249.033437 347.038437) scale(0.1 -0.1)">
       <defs>
        <path id="DejaVuSans-36" d="M 2113 2584 
Q 1688 2584 1439 2293 
Q 1191 2003 1191 1497 
Q 1191 994 1439 701 
Q 1688 409 2113 409 
Q 2538 409 2786 701 
Q 3034 994 3034 1497 
Q 3034 2003 2786 2293 
Q 2538 2584 2113 2584 
z
M 3366 4563 
L 3366 3988 
Q 3128 4100 2886 4159 
Q 2644 4219 2406 4219 
Q 1781 4219 1451 3797 
Q 1122 3375 1075 2522 
Q 1259 2794 1537 2939 
Q 1816 3084 2150 3084 
Q 2853 3084 3261 2657 
Q 3669 2231 3669 1497 
Q 3669 778 3244 343 
Q 2819 -91 2113 -91 
Q 1303 -91 875 529 
Q 447 1150 447 2328 
Q 447 3434 972 4092 
Q 1497 4750 2381 4750 
Q 2619 4750 2861 4703 
Q 3103 4656 3366 4563 
z
" transform="scale(0.015625)"/>
       </defs>
       <use xlink:href="#DejaVuSans-30"/>
       <use xlink:href="#DejaVuSans-2e" transform="translate(63.623047 0)"/>
       <use xlink:href="#DejaVuSans-36" transform="translate(95.410156 0)"/>
      </g>
     </g>
    </g>
    <g id="xtick_5">
     <g id="line2d_5">
      <g>
       <use xlink:href="#m23eb92b213" x="326.71" y="332.44" style="stroke: #000000; stroke-width: 0.8"/>
      </g>
     </g>
     <g id="text_5">
      <!-- 0.8 -->
      <g transform="translate(318.758437 347.038437) scale(0.1 -0.1)">
       <defs>
        <path id="DejaVuSans-38" d="M 2034 2216 
Q 1584 2216 1326 1975 
Q 1069 1734 1069 1313 
Q 1069 891 1326 650 
Q 1584 409 2034 409 
Q 2484 409 2743 651 
Q 3003 894 3003 1313 
Q 3003 1734 2745 1975 
Q 2488 2216 2034 2216 
z
M 1403 2484 
Q 997 2584 770 2862 
Q 544 3141 544 3541 
Q 544 4100 942 4425 
Q 1341 4750 2034 4750 
Q 2731 4750 3128 4425 
Q 3525 4100 3525 3541 
Q 3525 3141 3298 2862 
Q 3072 2584 2669 2484 
Q 3125 2378 3379 2068 
Q 3634 1759 3634 1313 
Q 3634 634 3220 271 
Q 2806 -91 2034 -91 
Q 1263 -91 848 271 
Q 434 634 434 1313 
Q 434 1759 690 2068 
Q 947 2378 1403 2484 
z
M 1172 3481 
Q 1172 3119 1398 2916 
Q 1625 2713 2034 2713 
Q 2441 2713 2670 2916 
Q 2900 3119 2900 3481 
Q 2900 3844 2670 4047 
Q 2441 4250 2034 4250 
Q 1625 4250 1398 4047 
Q 1172 3844 1172 3481 
z
" transform="scale(0.015625)"/>
       </defs>
       <use xlink:href="#DejaVuSans-30"/>
       <use xlink:href="#DejaVuSans-2e" transform="translate(63.623047 0)"/>
       <use xlink:href="#DejaVuSans-38" transform="translate(95.410156 0)"/>
      </g>
     </g>
    </g>
    <g id="xtick_6">
     <g id="line2d_6">
      <g>
       <use xlink:href="#m23eb92b213" x="396.435" y="332.44" style="stroke: #000000; stroke-width: 0.8"/>
      </g>
     </g>
     <g id="text_6">
      <!-- 1.0 -->
      <g transform="translate(388.483437 347.038437) scale(0.1 -0.1)">
       <defs>
        <path id="DejaVuSans-31" d="M 794 531 
L 1825 531 
L 1825 4091 
L 703 3866 
L 703 4441 
L 1819 4666 
L 2450 4666 
L 2450 531 
L 3481 531 
L 3481 0 
L 794 0 
L 794 531 
z
" transform="scale(0.015625)"/>
       </defs>
       <use xlink:href="#DejaVuSans-31"/>
       <use xlink:href="#DejaVuSans-2e" transform="translate(63.623047 0)"/>
       <use xlink:href="#DejaVuSans-30" transform="translate(95.410156 0)"/>
      </g>
     </g>
    </g>
    <g id="text_7">
     <!-- False Positive Rate -->
     <g transform="translate(175.656094 360.716563) scale(0.1 -0.1)">
      <defs>
       <path id="DejaVuSans-46" d="M 628 4666 
L 3309 4666 
L 3309 4134 
L 1259 4134 
L 1259 2759 
L 3109 2759 
L 3109 2228 
L 1259 2228 
L 1259 0 
L 628 0 
L 628 4666 
z
" transform="scale(0.015625)"/>
       <path id="DejaVuSans-61" d="M 2194 1759 
Q 1497 1759 1228 1600 
Q 959 1441 959 1056 
Q 959 750 1161 570 
Q 1363 391 1709 391 
Q 2188 391 2477 730 
Q 2766 1069 2766 1631 
L 2766 1759 
L 2194 1759 
z
M 3341 1997 
L 3341 0 
L 2766 0 
L 2766 531 
Q 2569 213 2275 61 
Q 1981 -91 1556 -91 
Q 1019 -91 701 211 
Q 384 513 384 1019 
Q 384 1609 779 1909 
Q 1175 2209 1959 2209 
L 2766 2209 
L 2766 2266 
Q 2766 2663 2505 2880 
Q 2244 3097 1772 3097 
Q 1472 3097 1187 3025 
Q 903 2953 641 2809 
L 641 3341 
Q 956 3463 1253 3523 
Q 1550 3584 1831 3584 
Q 2591 3584 2966 3190 
Q 3341 2797 3341 1997 
z
" transform="scale(0.015625)"/>
       <path id="DejaVuSans-6c" d="M 603 4863 
L 1178 4863 
L 1178 0 
L 603 0 
L 603 4863 
z
" transform="scale(0.015625)"/>
       <path id="DejaVuSans-73" d="M 2834 3397 
L 2834 2853 
Q 2591 2978 2328 3040 
Q 2066 3103 1784 3103 
Q 1356 3103 1142 2972 
Q 928 2841 928 2578 
Q 928 2378 1081 2264 
Q 1234 2150 1697 2047 
L 1894 2003 
Q 2506 1872 2764 1633 
Q 3022 1394 3022 966 
Q 3022 478 2636 193 
Q 2250 -91 1575 -91 
Q 1294 -91 989 -36 
Q 684 19 347 128 
L 347 722 
Q 666 556 975 473 
Q 1284 391 1588 391 
Q 1994 391 2212 530 
Q 2431 669 2431 922 
Q 2431 1156 2273 1281 
Q 2116 1406 1581 1522 
L 1381 1569 
Q 847 1681 609 1914 
Q 372 2147 372 2553 
Q 372 3047 722 3315 
Q 1072 3584 1716 3584 
Q 2034 3584 2315 3537 
Q 2597 3491 2834 3397 
z
" transform="scale(0.015625)"/>
       <path id="DejaVuSans-65" d="M 3597 1894 
L 3597 1613 
L 953 1613 
Q 991 1019 1311 708 
Q 1631 397 2203 397 
Q 2534 397 2845 478 
Q 3156 559 3463 722 
L 3463 178 
Q 3153 47 2828 -22 
Q 2503 -91 2169 -91 
Q 1331 -91 842 396 
Q 353 884 353 1716 
Q 353 2575 817 3079 
Q 1281 3584 2069 3584 
Q 2775 3584 3186 3129 
Q 3597 2675 3597 1894 
z
M 3022 2063 
Q 3016 2534 2758 2815 
Q 2500 3097 2075 3097 
Q 1594 3097 1305 2825 
Q 1016 2553 972 2059 
L 3022 2063 
z
" transform="scale(0.015625)"/>
       <path id="DejaVuSans-20" transform="scale(0.015625)"/>
       <path id="DejaVuSans-50" d="M 1259 4147 
L 1259 2394 
L 2053 2394 
Q 2494 2394 2734 2622 
Q 2975 2850 2975 3272 
Q 2975 3691 2734 3919 
Q 2494 4147 2053 4147 
L 1259 4147 
z
M 628 4666 
L 2053 4666 
Q 2838 4666 3239 4311 
Q 3641 3956 3641 3272 
Q 3641 2581 3239 2228 
Q 2838 1875 2053 1875 
L 1259 1875 
L 1259 0 
L 628 0 
L 628 4666 
z
" transform="scale(0.015625)"/>
       <path id="DejaVuSans-6f" d="M 1959 3097 
Q 1497 3097 1228 2736 
Q 959 2375 959 1747 
Q 959 1119 1226 758 
Q 1494 397 1959 397 
Q 2419 397 2687 759 
Q 2956 1122 2956 1747 
Q 2956 2369 2687 2733 
Q 2419 3097 1959 3097 
z
M 1959 3584 
Q 2709 3584 3137 3096 
Q 3566 2609 3566 1747 
Q 3566 888 3137 398 
Q 2709 -91 1959 -91 
Q 1206 -91 779 398 
Q 353 888 353 1747 
Q 353 2609 779 3096 
Q 1206 3584 1959 3584 
z
" transform="scale(0.015625)"/>
       <path id="DejaVuSans-69" d="M 603 3500 
L 1178 3500 
L 1178 0 
L 603 0 
L 603 3500 
z
M 603 4863 
L 1178 4863 
L 1178 4134 
L 603 4134 
L 603 4863 
z
" transform="scale(0.015625)"/>
       <path id="DejaVuSans-74" d="M 1172 4494 
L 1172 3500 
L 2356 3500 
L 2356 3053 
L 1172 3053 
L 1172 1153 
Q 1172 725 1289 603 
Q 1406 481 1766 481 
L 2356 481 
L 2356 0 
L 1766 0 
Q 1100 0 847 248 
Q 594 497 594 1153 
L 594 3053 
L 172 3053 
L 172 3500 
L 594 3500 
L 594 4494 
L 1172 4494 
z
" transform="scale(0.015625)"/>
       <path id="DejaVuSans-76" d="M 191 3500 
L 800 3500 
L 1894 563 
L 2988 3500 
L 3597 3500 
L 2284 0 
L 1503 0 
L 191 3500 
z
" transform="scale(0.015625)"/>
       <path id="DejaVuSans-52" d="M 2841 2188 
Q 3044 2119 3236 1894 
Q 3428 1669 3622 1275 
L 4263 0 
L 3584 0 
L 2988 1197 
Q 2756 1666 2539 1819 
Q 2322 1972 1947 1972 
L 1259 1972 
L 1259 0 
L 628 0 
L 628 4666 
L 2053 4666 
Q 2853 4666 3247 4331 
Q 3641 3997 3641 3322 
Q 3641 2881 3436 2590 
Q 3231 2300 2841 2188 
z
M 1259 4147 
L 1259 2491 
L 2053 2491 
Q 2509 2491 2742 2702 
Q 2975 2913 2975 3322 
Q 2975 3731 2742 3939 
Q 2509 4147 2053 4147 
L 1259 4147 
z
" transform="scale(0.015625)"/>
      </defs>
      <use xlink:href="#DejaVuSans-46"/>
      <use xlink:href="#DejaVuSans-61" transform="translate(48.394531 0)"/>
      <use xlink:href="#DejaVuSans-6c" transform="translate(109.673828 0)"/>
      <use xlink:href="#DejaVuSans-73" transform="translate(137.457031 0)"/>
      <use xlink:href="#DejaVuSans-65" transform="translate(189.556641 0)"/>
      <use xlink:href="#DejaVuSans-20" transform="translate(251.080078 0)"/>
      <use xlink:href="#DejaVuSans-50" transform="translate(282.867188 0)"/>
      <use xlink:href="#DejaVuSans-6f" transform="translate(339.544922 0)"/>
      <use xlink:href="#DejaVuSans-73" transform="translate(400.726562 0)"/>
      <use xlink:href="#DejaVuSans-69" transform="translate(452.826172 0)"/>
      <use xlink:href="#DejaVuSans-74" transform="translate(480.609375 0)"/>
      <use xlink:href="#DejaVuSans-69" transform="translate(519.818359 0)"/>
      <use xlink:href="#DejaVuSans-76" transform="translate(547.601562 0)"/>
      <use xlink:href="#DejaVuSans-65" transform="translate(606.78125 0)"/>
      <use xlink:href="#DejaVuSans-20" transform="translate(668.304688 0)"/>
      <use xlink:href="#DejaVuSans-52" transform="translate(700.091797 0)"/>
      <use xlink:href="#DejaVuSans-61" transform="translate(767.324219 0)"/>
      <use xlink:href="#DejaVuSans-74" transform="translate(828.603516 0)"/>
      <use xlink:href="#DejaVuSans-65" transform="translate(867.8125 0)"/>
     </g>
    </g>
   </g>
   <g id="matplotlib.axis_2">
    <g id="ytick_1">
     <g id="line2d_7">
      <defs>
       <path id="md48c5ee1fb" d="M 0 0 
L -3.5 0 
" style="stroke: #000000; stroke-width: 0.8"/>
      </defs>
      <g>
       <use xlink:href="#md48c5ee1fb" x="47.81" y="332.44" style="stroke: #000000; stroke-width: 0.8"/>
      </g>
     </g>
     <g id="text_8">
      <!-- 0.0 -->
      <g transform="translate(24.906875 336.239219) scale(0.1 -0.1)">
       <use xlink:href="#DejaVuSans-30"/>
       <use xlink:href="#DejaVuSans-2e" transform="translate(63.623047 0)"/>
       <use xlink:href="#DejaVuSans-30" transform="translate(95.410156 0)"/>
      </g>
     </g>
    </g>
    <g id="ytick_2">
     <g id="line2d_8">
      <g>
       <use xlink:href="#md48c5ee1fb" x="47.81" y="280.29098" style="stroke: #000000; stroke-width: 0.8"/>
      </g>
     </g>
     <g id="text_9">
      <!-- 0.2 -->
      <g transform="translate(24.906875 284.090199) scale(0.1 -0.1)">
       <use xlink:href="#DejaVuSans-30"/>
       <use xlink:href="#DejaVuSans-2e" transform="translate(63.623047 0)"/>
       <use xlink:href="#DejaVuSans-32" transform="translate(95.410156 0)"/>
      </g>
     </g>
    </g>
    <g id="ytick_3">
     <g id="line2d_9">
      <g>
       <use xlink:href="#md48c5ee1fb" x="47.81" y="228.141961" style="stroke: #000000; stroke-width: 0.8"/>
      </g>
     </g>
     <g id="text_10">
      <!-- 0.4 -->
      <g transform="translate(24.906875 231.94118) scale(0.1 -0.1)">
       <use xlink:href="#DejaVuSans-30"/>
       <use xlink:href="#DejaVuSans-2e" transform="translate(63.623047 0)"/>
       <use xlink:href="#DejaVuSans-34" transform="translate(95.410156 0)"/>
      </g>
     </g>
    </g>
    <g id="ytick_4">
     <g id="line2d_10">
      <g>
       <use xlink:href="#md48c5ee1fb" x="47.81" y="175.992941" style="stroke: #000000; stroke-width: 0.8"/>
      </g>
     </g>
     <g id="text_11">
      <!-- 0.6 -->
      <g transform="translate(24.906875 179.79216) scale(0.1 -0.1)">
       <use xlink:href="#DejaVuSans-30"/>
       <use xlink:href="#DejaVuSans-2e" transform="translate(63.623047 0)"/>
       <use xlink:href="#DejaVuSans-36" transform="translate(95.410156 0)"/>
      </g>
     </g>
    </g>
    <g id="ytick_5">
     <g id="line2d_11">
      <g>
       <use xlink:href="#md48c5ee1fb" x="47.81" y="123.843922" style="stroke: #000000; stroke-width: 0.8"/>
      </g>
     </g>
     <g id="text_12">
      <!-- 0.8 -->
      <g transform="translate(24.906875 127.64314) scale(0.1 -0.1)">
       <use xlink:href="#DejaVuSans-30"/>
       <use xlink:href="#DejaVuSans-2e" transform="translate(63.623047 0)"/>
       <use xlink:href="#DejaVuSans-38" transform="translate(95.410156 0)"/>
      </g>
     </g>
    </g>
    <g id="ytick_6">
     <g id="line2d_12">
      <g>
       <use xlink:href="#md48c5ee1fb" x="47.81" y="71.694902" style="stroke: #000000; stroke-width: 0.8"/>
      </g>
     </g>
     <g id="text_13">
      <!-- 1.0 -->
      <g transform="translate(24.906875 75.494121) scale(0.1 -0.1)">
       <use xlink:href="#DejaVuSans-31"/>
       <use xlink:href="#DejaVuSans-2e" transform="translate(63.623047 0)"/>
       <use xlink:href="#DejaVuSans-30" transform="translate(95.410156 0)"/>
      </g>
     </g>
    </g>
    <g id="text_14">
     <!-- True Positive Rate -->
     <g transform="translate(18.827187 243.989688) rotate(-90) scale(0.1 -0.1)">
      <defs>
       <path id="DejaVuSans-54" d="M -19 4666 
L 3928 4666 
L 3928 4134 
L 2272 4134 
L 2272 0 
L 1638 0 
L 1638 4134 
L -19 4134 
L -19 4666 
z
" transform="scale(0.015625)"/>
       <path id="DejaVuSans-72" d="M 2631 2963 
Q 2534 3019 2420 3045 
Q 2306 3072 2169 3072 
Q 1681 3072 1420 2755 
Q 1159 2438 1159 1844 
L 1159 0 
L 581 0 
L 581 3500 
L 1159 3500 
L 1159 2956 
Q 1341 3275 1631 3429 
Q 1922 3584 2338 3584 
Q 2397 3584 2469 3576 
Q 2541 3569 2628 3553 
L 2631 2963 
z
" transform="scale(0.015625)"/>
       <path id="DejaVuSans-75" d="M 544 1381 
L 544 3500 
L 1119 3500 
L 1119 1403 
Q 1119 906 1312 657 
Q 1506 409 1894 409 
Q 2359 409 2629 706 
Q 2900 1003 2900 1516 
L 2900 3500 
L 3475 3500 
L 3475 0 
L 2900 0 
L 2900 538 
Q 2691 219 2414 64 
Q 2138 -91 1772 -91 
Q 1169 -91 856 284 
Q 544 659 544 1381 
z
M 1991 3584 
L 1991 3584 
z
" transform="scale(0.015625)"/>
      </defs>
      <use xlink:href="#DejaVuSans-54"/>
      <use xlink:href="#DejaVuSans-72" transform="translate(46.333984 0)"/>
      <use xlink:href="#DejaVuSans-75" transform="translate(87.447266 0)"/>
      <use xlink:href="#DejaVuSans-65" transform="translate(150.826172 0)"/>
      <use xlink:href="#DejaVuSans-20" transform="translate(212.349609 0)"/>
      <use xlink:href="#DejaVuSans-50" transform="translate(244.136719 0)"/>
      <use xlink:href="#DejaVuSans-6f" transform="translate(300.814453 0)"/>
      <use xlink:href="#DejaVuSans-73" transform="translate(361.996094 0)"/>
      <use xlink:href="#DejaVuSans-69" transform="translate(414.095703 0)"/>
      <use xlink:href="#DejaVuSans-74" transform="translate(441.878906 0)"/>
      <use xlink:href="#DejaVuSans-69" transform="translate(481.087891 0)"/>
      <use xlink:href="#DejaVuSans-76" transform="translate(508.871094 0)"/>
      <use xlink:href="#DejaVuSans-65" transform="translate(568.050781 0)"/>
      <use xlink:href="#DejaVuSans-20" transform="translate(629.574219 0)"/>
      <use xlink:href="#DejaVuSans-52" transform="translate(661.361328 0)"/>
      <use xlink:href="#DejaVuSans-61" transform="translate(728.59375 0)"/>
      <use xlink:href="#DejaVuSans-74" transform="translate(789.873047 0)"/>
      <use xlink:href="#DejaVuSans-65" transform="translate(829.082031 0)"/>
     </g>
    </g>
   </g>
   <g id="line2d_13">
    <path d="M 47.81 332.44 
L 50.451098 206.374052 
L 50.451098 165.657099 
L 50.451098 230.647619 
L 53.092197 148.430697 
L 53.092197 157.826916 
L 55.733295 134.336367 
L 55.733295 142.16655 
L 55.733295 135.902404 
L 58.374394 131.987312 
L 58.374394 131.987312 
L 68.938788 127.289202 
L 76.862083 125.723166 
L 76.862083 124.940147 
L 82.14428 122.591092 
L 84.785379 122.591092 
L 92.708674 121.808074 
L 95.349773 117.109964 
L 95.349773 120.242037 
L 95.349773 118.676001 
L 97.990871 116.326946 
L 97.990871 116.326946 
L 97.990871 113.194873 
L 97.990871 115.543927 
L 100.63197 110.845818 
L 100.63197 105.364689 
L 100.63197 112.411854 
L 100.63197 105.364689 
L 103.273068 103.015634 
L 103.273068 103.798653 
L 103.273068 103.015634 
L 105.914167 102.232616 
L 105.914167 102.232616 
L 108.555265 98.317525 
L 108.555265 102.232616 
L 108.555265 100.66658 
L 111.196364 94.402433 
L 111.196364 98.317525 
L 111.196364 94.402433 
L 113.837462 90.487341 
L 113.837462 93.619415 
L 113.837462 90.487341 
L 119.119659 90.487341 
L 119.119659 90.487341 
L 124.401856 89.704323 
L 124.401856 89.704323 
L 124.401856 90.487341 
L 124.401856 89.704323 
L 127.042955 89.704323 
L 127.042955 89.704323 
L 127.042955 88.138287 
L 127.042955 89.704323 
L 134.96625 88.138287 
L 140.248447 88.138287 
L 140.248447 88.138287 
L 142.889545 87.355268 
L 148.171742 87.355268 
L 150.812841 86.57225 
L 150.812841 87.355268 
L 150.812841 85.789232 
L 156.095038 85.789232 
L 156.095038 85.789232 
L 158.736136 83.440177 
L 158.736136 85.789232 
L 158.736136 85.789232 
L 161.377235 78.742067 
L 161.377235 82.657158 
L 161.377235 82.657158 
L 166.659432 78.742067 
L 166.659432 78.742067 
L 171.941629 77.17603 
L 182.506023 77.17603 
L 190.429318 74.826975 
L 190.429318 76.393012 
L 190.429318 76.393012 
L 195.711515 74.043957 
L 195.711515 74.043957 
L 211.558106 74.043957 
L 219.481402 73.260939 
L 219.481402 73.260939 
L 224.763598 73.260939 
L 227.404697 72.47792 
L 235.327992 72.47792 
L 235.327992 72.47792 
L 240.610189 71.694902 
L 396.435 71.694902 
L 396.435 71.694902 
" clip-path="url(#pa477d634d3)" style="fill: none; stroke: #ca9161; stroke-width: 1.8; stroke-linecap: square"/>
   </g>
   <g id="line2d_14">
    <path d="M 47.81 332.44 
L 47.81 109.392988 
L 56.749103 96.82696 
L 56.749103 99.968467 
L 74.627308 93.685452 
L 74.627308 96.82696 
L 74.627308 93.685452 
L 83.56641 93.685452 
L 83.56641 93.685452 
L 92.505513 87.402438 
L 92.505513 87.402438 
L 101.444615 87.402438 
L 101.444615 87.402438 
L 101.444615 81.119424 
L 101.444615 84.260931 
L 110.383718 81.119424 
L 110.383718 81.119424 
L 128.261923 81.119424 
L 128.261923 81.119424 
L 128.261923 74.836409 
L 128.261923 81.119424 
L 137.201026 71.694902 
L 137.201026 71.694902 
L 396.435 71.694902 
L 396.435 71.694902 
" clip-path="url(#pa477d634d3)" style="fill: none; stroke-dasharray: 4.44,1.92; stroke-dashoffset: 0; stroke: #000000; stroke-opacity: 0.7; stroke-width: 1.2"/>
   </g>
   <g id="line2d_15">
    <path d="M 47.81 332.44 
L 396.435 71.694902 
" clip-path="url(#pa477d634d3)" style="fill: none; stroke-dasharray: 1,1.65; stroke-dashoffset: 0; stroke: #808080"/>
   </g>
   <g id="patch_3">
    <path d="M 47.81 332.44 
L 47.81 66.48 
" style="fill: none; stroke: #000000; stroke-width: 1.2; stroke-linejoin: miter; stroke-linecap: square"/>
   </g>
   <g id="patch_4">
    <path d="M 47.81 332.44 
L 396.435 332.44 
" style="fill: none; stroke: #000000; stroke-width: 1.2; stroke-linejoin: miter; stroke-linecap: square"/>
   </g>
   <g id="text_15">
    <!-- ROC &amp; Youden's J -->
    <g transform="translate(170.449375 60.48) scale(0.12 -0.12)">
     <defs>
      <path id="DejaVuSans-4f" d="M 2522 4238 
Q 1834 4238 1429 3725 
Q 1025 3213 1025 2328 
Q 1025 1447 1429 934 
Q 1834 422 2522 422 
Q 3209 422 3611 934 
Q 4013 1447 4013 2328 
Q 4013 3213 3611 3725 
Q 3209 4238 2522 4238 
z
M 2522 4750 
Q 3503 4750 4090 4092 
Q 4678 3434 4678 2328 
Q 4678 1225 4090 567 
Q 3503 -91 2522 -91 
Q 1538 -91 948 565 
Q 359 1222 359 2328 
Q 359 3434 948 4092 
Q 1538 4750 2522 4750 
z
" transform="scale(0.015625)"/>
      <path id="DejaVuSans-43" d="M 4122 4306 
L 4122 3641 
Q 3803 3938 3442 4084 
Q 3081 4231 2675 4231 
Q 1875 4231 1450 3742 
Q 1025 3253 1025 2328 
Q 1025 1406 1450 917 
Q 1875 428 2675 428 
Q 3081 428 3442 575 
Q 3803 722 4122 1019 
L 4122 359 
Q 3791 134 3420 21 
Q 3050 -91 2638 -91 
Q 1578 -91 968 557 
Q 359 1206 359 2328 
Q 359 3453 968 4101 
Q 1578 4750 2638 4750 
Q 3056 4750 3426 4639 
Q 3797 4528 4122 4306 
z
" transform="scale(0.015625)"/>
      <path id="DejaVuSans-26" d="M 1556 2509 
Q 1272 2256 1139 2004 
Q 1006 1753 1006 1478 
Q 1006 1022 1337 719 
Q 1669 416 2169 416 
Q 2466 416 2725 514 
Q 2984 613 3213 813 
L 1556 2509 
z
M 1997 2859 
L 3584 1234 
Q 3769 1513 3872 1830 
Q 3975 2147 3994 2503 
L 4575 2503 
Q 4538 2091 4375 1687 
Q 4213 1284 3922 891 
L 4794 0 
L 4006 0 
L 3559 459 
Q 3234 181 2878 45 
Q 2522 -91 2113 -91 
Q 1359 -91 881 339 
Q 403 769 403 1441 
Q 403 1841 612 2192 
Q 822 2544 1241 2853 
Q 1091 3050 1012 3245 
Q 934 3441 934 3628 
Q 934 4134 1281 4442 
Q 1628 4750 2203 4750 
Q 2463 4750 2720 4694 
Q 2978 4638 3244 4525 
L 3244 3956 
Q 2972 4103 2725 4179 
Q 2478 4256 2266 4256 
Q 1938 4256 1733 4082 
Q 1528 3909 1528 3634 
Q 1528 3475 1620 3314 
Q 1713 3153 1997 2859 
z
" transform="scale(0.015625)"/>
      <path id="DejaVuSans-59" d="M -13 4666 
L 666 4666 
L 1959 2747 
L 3244 4666 
L 3922 4666 
L 2272 2222 
L 2272 0 
L 1638 0 
L 1638 2222 
L -13 4666 
z
" transform="scale(0.015625)"/>
      <path id="DejaVuSans-64" d="M 2906 2969 
L 2906 4863 
L 3481 4863 
L 3481 0 
L 2906 0 
L 2906 525 
Q 2725 213 2448 61 
Q 2172 -91 1784 -91 
Q 1150 -91 751 415 
Q 353 922 353 1747 
Q 353 2572 751 3078 
Q 1150 3584 1784 3584 
Q 2172 3584 2448 3432 
Q 2725 3281 2906 2969 
z
M 947 1747 
Q 947 1113 1208 752 
Q 1469 391 1925 391 
Q 2381 391 2643 752 
Q 2906 1113 2906 1747 
Q 2906 2381 2643 2742 
Q 2381 3103 1925 3103 
Q 1469 3103 1208 2742 
Q 947 2381 947 1747 
z
" transform="scale(0.015625)"/>
      <path id="DejaVuSans-6e" d="M 3513 2113 
L 3513 0 
L 2938 0 
L 2938 2094 
Q 2938 2591 2744 2837 
Q 2550 3084 2163 3084 
Q 1697 3084 1428 2787 
Q 1159 2491 1159 1978 
L 1159 0 
L 581 0 
L 581 3500 
L 1159 3500 
L 1159 2956 
Q 1366 3272 1645 3428 
Q 1925 3584 2291 3584 
Q 2894 3584 3203 3211 
Q 3513 2838 3513 2113 
z
" transform="scale(0.015625)"/>
      <path id="DejaVuSans-27" d="M 1147 4666 
L 1147 2931 
L 616 2931 
L 616 4666 
L 1147 4666 
z
" transform="scale(0.015625)"/>
      <path id="DejaVuSans-4a" d="M 628 4666 
L 1259 4666 
L 1259 325 
Q 1259 -519 939 -900 
Q 619 -1281 -91 -1281 
L -331 -1281 
L -331 -750 
L -134 -750 
Q 284 -750 456 -515 
Q 628 -281 628 325 
L 628 4666 
z
" transform="scale(0.015625)"/>
     </defs>
     <use xlink:href="#DejaVuSans-52"/>
     <use xlink:href="#DejaVuSans-4f" transform="translate(69.482422 0)"/>
     <use xlink:href="#DejaVuSans-43" transform="translate(148.193359 0)"/>
     <use xlink:href="#DejaVuSans-20" transform="translate(218.017578 0)"/>
     <use xlink:href="#DejaVuSans-26" transform="translate(249.804688 0)"/>
     <use xlink:href="#DejaVuSans-20" transform="translate(327.783203 0)"/>
     <use xlink:href="#DejaVuSans-59" transform="translate(359.570312 0)"/>
     <use xlink:href="#DejaVuSans-6f" transform="translate(407.404297 0)"/>
     <use xlink:href="#DejaVuSans-75" transform="translate(468.585938 0)"/>
     <use xlink:href="#DejaVuSans-64" transform="translate(531.964844 0)"/>
     <use xlink:href="#DejaVuSans-65" transform="translate(595.441406 0)"/>
     <use xlink:href="#DejaVuSans-6e" transform="translate(656.964844 0)"/>
     <use xlink:href="#DejaVuSans-27" transform="translate(720.34375 0)"/>
     <use xlink:href="#DejaVuSans-73" transform="translate(747.833984 0)"/>
     <use xlink:href="#DejaVuSans-20" transform="translate(799.933594 0)"/>
     <use xlink:href="#DejaVuSans-4a" transform="translate(831.720703 0)"/>
    </g>
   </g>
   <g id="PathCollection_1">
    <defs>
     <path id="me2e0d7a8ee" d="M 0 2.915476 
C 0.773193 2.915476 1.514823 2.608283 2.061553 2.061553 
C 2.608283 1.514823 2.915476 0.773193 2.915476 0 
C 2.915476 -0.773193 2.608283 -1.514823 2.061553 -2.061553 
C 1.514823 -2.608283 0.773193 -2.915476 0 -2.915476 
C -0.773193 -2.915476 -1.514823 -2.608283 -2.061553 -2.061553 
C -2.608283 -1.514823 -2.915476 -0.773193 -2.915476 0 
C -2.915476 0.773193 -2.608283 1.514823 -2.061553 2.061553 
C -1.514823 2.608283 -0.773193 2.915476 0 2.915476 
z
" style="stroke: #dc143c"/>
    </defs>
    <g clip-path="url(#pa477d634d3)">
     <use xlink:href="#me2e0d7a8ee" x="58.374394" y="131.987312" style="fill: #dc143c; stroke: #dc143c"/>
    </g>
   </g>
   <g id="legend_1">
    <g id="line2d_16">
     <path d="M 288.6325 297.29125 
L 296.6325 297.29125 
L 304.6325 297.29125 
" style="fill: none; stroke: #ca9161; stroke-width: 1.8; stroke-linecap: square"/>
    </g>
    <g id="text_16">
     <!-- OOF ROC -->
     <g transform="translate(311.0325 300.09125) scale(0.08 -0.08)">
      <use xlink:href="#DejaVuSans-4f"/>
      <use xlink:href="#DejaVuSans-4f" transform="translate(78.710938 0)"/>
      <use xlink:href="#DejaVuSans-46" transform="translate(157.421875 0)"/>
      <use xlink:href="#DejaVuSans-20" transform="translate(214.941406 0)"/>
      <use xlink:href="#DejaVuSans-52" transform="translate(246.728516 0)"/>
      <use xlink:href="#DejaVuSans-4f" transform="translate(316.210938 0)"/>
      <use xlink:href="#DejaVuSans-43" transform="translate(394.921875 0)"/>
     </g>
    </g>
    <g id="line2d_17">
     <path d="M 288.6325 309.03375 
L 296.6325 309.03375 
L 304.6325 309.03375 
" style="fill: none; stroke-dasharray: 4.44,1.92; stroke-dashoffset: 0; stroke: #000000; stroke-opacity: 0.7; stroke-width: 1.2"/>
    </g>
    <g id="text_17">
     <!-- External ROC -->
     <g transform="translate(311.0325 311.83375) scale(0.08 -0.08)">
      <defs>
       <path id="DejaVuSans-45" d="M 628 4666 
L 3578 4666 
L 3578 4134 
L 1259 4134 
L 1259 2753 
L 3481 2753 
L 3481 2222 
L 1259 2222 
L 1259 531 
L 3634 531 
L 3634 0 
L 628 0 
L 628 4666 
z
" transform="scale(0.015625)"/>
       <path id="DejaVuSans-78" d="M 3513 3500 
L 2247 1797 
L 3578 0 
L 2900 0 
L 1881 1375 
L 863 0 
L 184 0 
L 1544 1831 
L 300 3500 
L 978 3500 
L 1906 2253 
L 2834 3500 
L 3513 3500 
z
" transform="scale(0.015625)"/>
      </defs>
      <use xlink:href="#DejaVuSans-45"/>
      <use xlink:href="#DejaVuSans-78" transform="translate(63.183594 0)"/>
      <use xlink:href="#DejaVuSans-74" transform="translate(122.363281 0)"/>
      <use xlink:href="#DejaVuSans-65" transform="translate(161.572266 0)"/>
      <use xlink:href="#DejaVuSans-72" transform="translate(223.095703 0)"/>
      <use xlink:href="#DejaVuSans-6e" transform="translate(262.458984 0)"/>
      <use xlink:href="#DejaVuSans-61" transform="translate(325.837891 0)"/>
      <use xlink:href="#DejaVuSans-6c" transform="translate(387.117188 0)"/>
      <use xlink:href="#DejaVuSans-20" transform="translate(414.900391 0)"/>
      <use xlink:href="#DejaVuSans-52" transform="translate(446.6875 0)"/>
      <use xlink:href="#DejaVuSans-4f" transform="translate(516.169922 0)"/>
      <use xlink:href="#DejaVuSans-43" transform="translate(594.880859 0)"/>
     </g>
    </g>
    <g id="PathCollection_2">
     <g>
      <use xlink:href="#me2e0d7a8ee" x="296.6325" y="321.47625" style="fill: #dc143c; stroke: #dc143c"/>
     </g>
    </g>
    <g id="text_18">
     <!-- Youden-J thr=0.939 -->
     <g transform="translate(311.0325 323.57625) scale(0.08 -0.08)">
      <defs>
       <path id="DejaVuSans-2d" d="M 313 2009 
L 1997 2009 
L 1997 1497 
L 313 1497 
L 313 2009 
z
" transform="scale(0.015625)"/>
       <path id="DejaVuSans-68" d="M 3513 2113 
L 3513 0 
L 2938 0 
L 2938 2094 
Q 2938 2591 2744 2837 
Q 2550 3084 2163 3084 
Q 1697 3084 1428 2787 
Q 1159 2491 1159 1978 
L 1159 0 
L 581 0 
L 581 4863 
L 1159 4863 
L 1159 2956 
Q 1366 3272 1645 3428 
Q 1925 3584 2291 3584 
Q 2894 3584 3203 3211 
Q 3513 2838 3513 2113 
z
" transform="scale(0.015625)"/>
       <path id="DejaVuSans-3d" d="M 678 2906 
L 4684 2906 
L 4684 2381 
L 678 2381 
L 678 2906 
z
M 678 1631 
L 4684 1631 
L 4684 1100 
L 678 1100 
L 678 1631 
z
" transform="scale(0.015625)"/>
       <path id="DejaVuSans-39" d="M 703 97 
L 703 672 
Q 941 559 1184 500 
Q 1428 441 1663 441 
Q 2288 441 2617 861 
Q 2947 1281 2994 2138 
Q 2813 1869 2534 1725 
Q 2256 1581 1919 1581 
Q 1219 1581 811 2004 
Q 403 2428 403 3163 
Q 403 3881 828 4315 
Q 1253 4750 1959 4750 
Q 2769 4750 3195 4129 
Q 3622 3509 3622 2328 
Q 3622 1225 3098 567 
Q 2575 -91 1691 -91 
Q 1453 -91 1209 -44 
Q 966 3 703 97 
z
M 1959 2075 
Q 2384 2075 2632 2365 
Q 2881 2656 2881 3163 
Q 2881 3666 2632 3958 
Q 2384 4250 1959 4250 
Q 1534 4250 1286 3958 
Q 1038 3666 1038 3163 
Q 1038 2656 1286 2365 
Q 1534 2075 1959 2075 
z
" transform="scale(0.015625)"/>
       <path id="DejaVuSans-33" d="M 2597 2516 
Q 3050 2419 3304 2112 
Q 3559 1806 3559 1356 
Q 3559 666 3084 287 
Q 2609 -91 1734 -91 
Q 1441 -91 1130 -33 
Q 819 25 488 141 
L 488 750 
Q 750 597 1062 519 
Q 1375 441 1716 441 
Q 2309 441 2620 675 
Q 2931 909 2931 1356 
Q 2931 1769 2642 2001 
Q 2353 2234 1838 2234 
L 1294 2234 
L 1294 2753 
L 1863 2753 
Q 2328 2753 2575 2939 
Q 2822 3125 2822 3475 
Q 2822 3834 2567 4026 
Q 2313 4219 1838 4219 
Q 1578 4219 1281 4162 
Q 984 4106 628 3988 
L 628 4550 
Q 988 4650 1302 4700 
Q 1616 4750 1894 4750 
Q 2613 4750 3031 4423 
Q 3450 4097 3450 3541 
Q 3450 3153 3228 2886 
Q 3006 2619 2597 2516 
z
" transform="scale(0.015625)"/>
      </defs>
      <use xlink:href="#DejaVuSans-59"/>
      <use xlink:href="#DejaVuSans-6f" transform="translate(47.833984 0)"/>
      <use xlink:href="#DejaVuSans-75" transform="translate(109.015625 0)"/>
      <use xlink:href="#DejaVuSans-64" transform="translate(172.394531 0)"/>
      <use xlink:href="#DejaVuSans-65" transform="translate(235.871094 0)"/>
      <use xlink:href="#DejaVuSans-6e" transform="translate(297.394531 0)"/>
      <use xlink:href="#DejaVuSans-2d" transform="translate(360.773438 0)"/>
      <use xlink:href="#DejaVuSans-4a" transform="translate(402.482422 0)"/>
      <use xlink:href="#DejaVuSans-20" transform="translate(431.974609 0)"/>
      <use xlink:href="#DejaVuSans-74" transform="translate(463.761719 0)"/>
      <use xlink:href="#DejaVuSans-68" transform="translate(502.970703 0)"/>
      <use xlink:href="#DejaVuSans-72" transform="translate(566.349609 0)"/>
      <use xlink:href="#DejaVuSans-3d" transform="translate(607.462891 0)"/>
      <use xlink:href="#DejaVuSans-30" transform="translate(691.251953 0)"/>
      <use xlink:href="#DejaVuSans-2e" transform="translate(754.875 0)"/>
      <use xlink:href="#DejaVuSans-39" transform="translate(786.662109 0)"/>
      <use xlink:href="#DejaVuSans-33" transform="translate(850.285156 0)"/>
      <use xlink:href="#DejaVuSans-39" transform="translate(913.908203 0)"/>
     </g>
    </g>
   </g>
  </g>
  <g id="axes_2">
   <g id="patch_5">
    <path d="M 452.21 332.44 
L 800.835 332.44 
L 800.835 66.48 
L 452.21 66.48 
z
" style="fill: #ffffff"/>
   </g>
   <g id="matplotlib.axis_3">
    <g id="xtick_7">
     <g id="line2d_18">
      <g>
       <use xlink:href="#m23eb92b213" x="452.21" y="332.44" style="stroke: #000000; stroke-width: 0.8"/>
      </g>
     </g>
     <g id="text_19">
      <!-- 0.0 -->
      <g transform="translate(444.258438 347.038437) scale(0.1 -0.1)">
       <use xlink:href="#DejaVuSans-30"/>
       <use xlink:href="#DejaVuSans-2e" transform="translate(63.623047 0)"/>
       <use xlink:href="#DejaVuSans-30" transform="translate(95.410156 0)"/>
      </g>
     </g>
    </g>
    <g id="xtick_8">
     <g id="line2d_19">
      <g>
       <use xlink:href="#m23eb92b213" x="521.935" y="332.44" style="stroke: #000000; stroke-width: 0.8"/>
      </g>
     </g>
     <g id="text_20">
      <!-- 0.2 -->
      <g transform="translate(513.983438 347.038437) scale(0.1 -0.1)">
       <use xlink:href="#DejaVuSans-30"/>
       <use xlink:href="#DejaVuSans-2e" transform="translate(63.623047 0)"/>
       <use xlink:href="#DejaVuSans-32" transform="translate(95.410156 0)"/>
      </g>
     </g>
    </g>
    <g id="xtick_9">
     <g id="line2d_20">
      <g>
       <use xlink:href="#m23eb92b213" x="591.66" y="332.44" style="stroke: #000000; stroke-width: 0.8"/>
      </g>
     </g>
     <g id="text_21">
      <!-- 0.4 -->
      <g transform="translate(583.708438 347.038437) scale(0.1 -0.1)">
       <use xlink:href="#DejaVuSans-30"/>
       <use xlink:href="#DejaVuSans-2e" transform="translate(63.623047 0)"/>
       <use xlink:href="#DejaVuSans-34" transform="translate(95.410156 0)"/>
      </g>
     </g>
    </g>
    <g id="xtick_10">
     <g id="line2d_21">
      <g>
       <use xlink:href="#m23eb92b213" x="661.385" y="332.44" style="stroke: #000000; stroke-width: 0.8"/>
      </g>
     </g>
     <g id="text_22">
      <!-- 0.6 -->
      <g transform="translate(653.433438 347.038437) scale(0.1 -0.1)">
       <use xlink:href="#DejaVuSans-30"/>
       <use xlink:href="#DejaVuSans-2e" transform="translate(63.623047 0)"/>
       <use xlink:href="#DejaVuSans-36" transform="translate(95.410156 0)"/>
      </g>
     </g>
    </g>
    <g id="xtick_11">
     <g id="line2d_22">
      <g>
       <use xlink:href="#m23eb92b213" x="731.11" y="332.44" style="stroke: #000000; stroke-width: 0.8"/>
      </g>
     </g>
     <g id="text_23">
      <!-- 0.8 -->
      <g transform="translate(723.158438 347.038437) scale(0.1 -0.1)">
       <use xlink:href="#DejaVuSans-30"/>
       <use xlink:href="#DejaVuSans-2e" transform="translate(63.623047 0)"/>
       <use xlink:href="#DejaVuSans-38" transform="translate(95.410156 0)"/>
      </g>
     </g>
    </g>
    <g id="xtick_12">
     <g id="line2d_23">
      <g>
       <use xlink:href="#m23eb92b213" x="800.835" y="332.44" style="stroke: #000000; stroke-width: 0.8"/>
      </g>
     </g>
     <g id="text_24">
      <!-- 1.0 -->
      <g transform="translate(792.883438 347.038437) scale(0.1 -0.1)">
       <use xlink:href="#DejaVuSans-31"/>
       <use xlink:href="#DejaVuSans-2e" transform="translate(63.623047 0)"/>
       <use xlink:href="#DejaVuSans-30" transform="translate(95.410156 0)"/>
      </g>
     </g>
    </g>
    <g id="text_25">
     <!-- Recall -->
     <g transform="translate(611.605313 360.716563) scale(0.1 -0.1)">
      <defs>
       <path id="DejaVuSans-63" d="M 3122 3366 
L 3122 2828 
Q 2878 2963 2633 3030 
Q 2388 3097 2138 3097 
Q 1578 3097 1268 2742 
Q 959 2388 959 1747 
Q 959 1106 1268 751 
Q 1578 397 2138 397 
Q 2388 397 2633 464 
Q 2878 531 3122 666 
L 3122 134 
Q 2881 22 2623 -34 
Q 2366 -91 2075 -91 
Q 1284 -91 818 406 
Q 353 903 353 1747 
Q 353 2603 823 3093 
Q 1294 3584 2113 3584 
Q 2378 3584 2631 3529 
Q 2884 3475 3122 3366 
z
" transform="scale(0.015625)"/>
      </defs>
      <use xlink:href="#DejaVuSans-52"/>
      <use xlink:href="#DejaVuSans-65" transform="translate(64.982422 0)"/>
      <use xlink:href="#DejaVuSans-63" transform="translate(126.505859 0)"/>
      <use xlink:href="#DejaVuSans-61" transform="translate(181.486328 0)"/>
      <use xlink:href="#DejaVuSans-6c" transform="translate(242.765625 0)"/>
      <use xlink:href="#DejaVuSans-6c" transform="translate(270.548828 0)"/>
     </g>
    </g>
   </g>
   <g id="matplotlib.axis_4">
    <g id="ytick_7">
     <g id="line2d_24">
      <g>
       <use xlink:href="#md48c5ee1fb" x="452.21" y="332.44" style="stroke: #000000; stroke-width: 0.8"/>
      </g>
     </g>
     <g id="text_26">
      <!-- 0.0 -->
      <g transform="translate(429.306875 336.239219) scale(0.1 -0.1)">
       <use xlink:href="#DejaVuSans-30"/>
       <use xlink:href="#DejaVuSans-2e" transform="translate(63.623047 0)"/>
       <use xlink:href="#DejaVuSans-30" transform="translate(95.410156 0)"/>
      </g>
     </g>
    </g>
    <g id="ytick_8">
     <g id="line2d_25">
      <g>
       <use xlink:href="#md48c5ee1fb" x="452.21" y="280.29098" style="stroke: #000000; stroke-width: 0.8"/>
      </g>
     </g>
     <g id="text_27">
      <!-- 0.2 -->
      <g transform="translate(429.306875 284.090199) scale(0.1 -0.1)">
       <use xlink:href="#DejaVuSans-30"/>
       <use xlink:href="#DejaVuSans-2e" transform="translate(63.623047 0)"/>
       <use xlink:href="#DejaVuSans-32" transform="translate(95.410156 0)"/>
      </g>
     </g>
    </g>
    <g id="ytick_9">
     <g id="line2d_26">
      <g>
       <use xlink:href="#md48c5ee1fb" x="452.21" y="228.141961" style="stroke: #000000; stroke-width: 0.8"/>
      </g>
     </g>
     <g id="text_28">
      <!-- 0.4 -->
      <g transform="translate(429.306875 231.94118) scale(0.1 -0.1)">
       <use xlink:href="#DejaVuSans-30"/>
       <use xlink:href="#DejaVuSans-2e" transform="translate(63.623047 0)"/>
       <use xlink:href="#DejaVuSans-34" transform="translate(95.410156 0)"/>
      </g>
     </g>
    </g>
    <g id="ytick_10">
     <g id="line2d_27">
      <g>
       <use xlink:href="#md48c5ee1fb" x="452.21" y="175.992941" style="stroke: #000000; stroke-width: 0.8"/>
      </g>
     </g>
     <g id="text_29">
      <!-- 0.6 -->
      <g transform="translate(429.306875 179.79216) scale(0.1 -0.1)">
       <use xlink:href="#DejaVuSans-30"/>
       <use xlink:href="#DejaVuSans-2e" transform="translate(63.623047 0)"/>
       <use xlink:href="#DejaVuSans-36" transform="translate(95.410156 0)"/>
      </g>
     </g>
    </g>
    <g id="ytick_11">
     <g id="line2d_28">
      <g>
       <use xlink:href="#md48c5ee1fb" x="452.21" y="123.843922" style="stroke: #000000; stroke-width: 0.8"/>
      </g>
     </g>
     <g id="text_30">
      <!-- 0.8 -->
      <g transform="translate(429.306875 127.64314) scale(0.1 -0.1)">
       <use xlink:href="#DejaVuSans-30"/>
       <use xlink:href="#DejaVuSans-2e" transform="translate(63.623047 0)"/>
       <use xlink:href="#DejaVuSans-38" transform="translate(95.410156 0)"/>
      </g>
     </g>
    </g>
    <g id="ytick_12">
     <g id="line2d_29">
      <g>
       <use xlink:href="#md48c5ee1fb" x="452.21" y="71.694902" style="stroke: #000000; stroke-width: 0.8"/>
      </g>
     </g>
     <g id="text_31">
      <!-- 1.0 -->
      <g transform="translate(429.306875 75.494121) scale(0.1 -0.1)">
       <use xlink:href="#DejaVuSans-31"/>
       <use xlink:href="#DejaVuSans-2e" transform="translate(63.623047 0)"/>
       <use xlink:href="#DejaVuSans-30" transform="translate(95.410156 0)"/>
      </g>
     </g>
    </g>
    <g id="text_32">
     <!-- Precision -->
     <g transform="translate(423.227188 221.767031) rotate(-90) scale(0.1 -0.1)">
      <use xlink:href="#DejaVuSans-50"/>
      <use xlink:href="#DejaVuSans-72" transform="translate(58.552734 0)"/>
      <use xlink:href="#DejaVuSans-65" transform="translate(97.416016 0)"/>
      <use xlink:href="#DejaVuSans-63" transform="translate(158.939453 0)"/>
      <use xlink:href="#DejaVuSans-69" transform="translate(213.919922 0)"/>
      <use xlink:href="#DejaVuSans-73" transform="translate(241.703125 0)"/>
      <use xlink:href="#DejaVuSans-69" transform="translate(293.802734 0)"/>
      <use xlink:href="#DejaVuSans-6f" transform="translate(321.585938 0)"/>
      <use xlink:href="#DejaVuSans-6e" transform="translate(382.767578 0)"/>
     </g>
    </g>
   </g>
   <g id="line2d_30">
    <path d="M 452.21 332.44 
L 588.30985 73.685323 
L 620.764429 73.30444 
L 675.204369 72.913337 
L 685.673589 74.012636 
L 698.236652 73.895283 
L 706.612027 74.87472 
L 717.081246 74.750509 
L 720.222012 75.706365 
L 720.222012 75.706365 
L 726.503544 79.420683 
L 728.597387 82.124706 
L 729.644309 82.086917 
L 732.785075 84.639694 
L 732.785075 83.757842 
L 733.831997 87.193736 
L 735.925841 87.935081 
L 740.113529 87.713372 
L 741.16045 88.488654 
L 741.16045 88.488654 
L 745.348138 88.263988 
L 745.348138 88.263988 
L 746.39506 89.020158 
L 755.817357 88.517166 
L 755.817357 88.517166 
L 757.911201 89.188982 
L 757.911201 89.188982 
L 758.958123 89.133268 
L 758.958123 89.133268 
L 760.005045 89.848042 
L 760.005045 89.848042 
L 760.005045 90.613316 
L 764.192733 90.377573 
L 765.239655 91.069151 
L 765.239655 90.319552 
L 765.239655 91.069151 
L 770.474264 90.773812 
L 770.474264 90.773812 
L 771.521186 91.448318 
L 774.661952 91.27036 
L 775.708874 92.647633 
L 775.708874 91.211751 
L 775.708874 94.066523 
L 775.708874 94.066523 
L 776.755796 94.701822 
L 776.755796 94.701822 
L 776.755796 94.00053 
L 776.755796 94.701822 
L 778.84964 94.567279 
L 778.84964 94.567279 
L 778.84964 97.99484 
L 778.84964 97.317253 
L 779.896562 100.584274 
L 779.896562 98.591244 
L 780.943483 100.502434 
L 780.943483 100.502434 
L 781.990405 101.074631 
L 781.990405 102.370796 
L 781.990405 100.421057 
L 781.990405 102.370796 
L 785.131171 102.115163 
L 785.131171 102.115163 
L 786.178093 102.667386 
L 786.178093 102.667386 
L 790.365781 102.328889 
L 791.412703 103.493085 
L 791.412703 102.245418 
L 791.412703 103.493085 
L 793.506547 104.550182 
L 793.506547 106.968112 
L 793.506547 105.765595 
L 794.553468 108.6509 
L 794.553468 107.469955 
L 794.553468 107.469955 
L 796.647312 108.457918 
L 797.694234 112.373805 
L 797.694234 112.935198 
L 797.694234 109.523206 
L 797.694234 109.523206 
L 798.741156 114.493971 
L 798.741156 114.493971 
L 798.741156 115.589177 
L 799.788078 116.561265 
L 799.788078 117.632624 
L 799.788078 116.021569 
L 799.788078 117.632624 
L 800.835 126.686167 
L 800.835 145.712865 
L 800.835 118.577641 
L 800.835 142.027461 
" clip-path="url(#p3488d0ef8e)" style="fill: none; stroke: #ca9161; stroke-width: 1.8; stroke-linecap: square"/>
   </g>
   <g id="line2d_31">
    <path d="M 452.21 332.44 
L 750.431386 71.694902 
L 763.032289 75.171503 
L 767.23259 81.72356 
L 767.23259 75.125759 
L 767.23259 78.467502 
L 771.432892 81.596615 
L 771.432892 81.596615 
L 771.432892 84.732157 
L 771.432892 81.596615 
L 779.833494 90.319552 
L 779.833494 90.319552 
L 779.833494 87.402438 
L 779.833494 87.402438 
L 784.033795 90.100438 
L 784.033795 90.100438 
L 788.234096 95.399002 
L 788.234096 95.399002 
L 788.234096 89.88642 
L 788.234096 98.062384 
L 788.234096 98.062384 
L 796.634699 97.482879 
L 796.634699 97.482879 
L 800.835 107.004134 
L 800.835 99.732009 
L 800.835 155.047843 
L 800.835 102.207626 
" clip-path="url(#p3488d0ef8e)" style="fill: none; stroke-dasharray: 4.44,1.92; stroke-dashoffset: 0; stroke: #000000; stroke-opacity: 0.7; stroke-width: 1.2"/>
   </g>
   <g id="patch_6">
    <path d="M 452.21 332.44 
L 452.21 66.48 
" style="fill: none; stroke: #000000; stroke-width: 1.2; stroke-linejoin: miter; stroke-linecap: square"/>
   </g>
   <g id="patch_7">
    <path d="M 452.21 332.44 
L 800.835 332.44 
" style="fill: none; stroke: #000000; stroke-width: 1.2; stroke-linejoin: miter; stroke-linecap: square"/>
   </g>
   <g id="text_33">
    <!-- PR &amp; Max-F1 -->
    <g transform="translate(588.404688 60.48) scale(0.12 -0.12)">
     <defs>
      <path id="DejaVuSans-4d" d="M 628 4666 
L 1569 4666 
L 2759 1491 
L 3956 4666 
L 4897 4666 
L 4897 0 
L 4281 0 
L 4281 4097 
L 3078 897 
L 2444 897 
L 1241 4097 
L 1241 0 
L 628 0 
L 628 4666 
z
" transform="scale(0.015625)"/>
     </defs>
     <use xlink:href="#DejaVuSans-50"/>
     <use xlink:href="#DejaVuSans-52" transform="translate(60.302734 0)"/>
     <use xlink:href="#DejaVuSans-20" transform="translate(129.785156 0)"/>
     <use xlink:href="#DejaVuSans-26" transform="translate(161.572266 0)"/>
     <use xlink:href="#DejaVuSans-20" transform="translate(239.550781 0)"/>
     <use xlink:href="#DejaVuSans-4d" transform="translate(271.337891 0)"/>
     <use xlink:href="#DejaVuSans-61" transform="translate(357.617188 0)"/>
     <use xlink:href="#DejaVuSans-78" transform="translate(418.896484 0)"/>
     <use xlink:href="#DejaVuSans-2d" transform="translate(478.076172 0)"/>
     <use xlink:href="#DejaVuSans-46" transform="translate(514.160156 0)"/>
     <use xlink:href="#DejaVuSans-31" transform="translate(571.679688 0)"/>
    </g>
   </g>
   <g id="PathCollection_3">
    <g clip-path="url(#p3488d0ef8e)">
     <use xlink:href="#me2e0d7a8ee" x="775.708874" y="91.211751" style="fill: #dc143c; stroke: #dc143c"/>
    </g>
   </g>
   <g id="legend_2">
    <g id="line2d_32">
     <path d="M 459.41 297.29125 
L 467.41 297.29125 
L 475.41 297.29125 
" style="fill: none; stroke: #ca9161; stroke-width: 1.8; stroke-linecap: square"/>
    </g>
    <g id="text_34">
     <!-- OOF PR -->
     <g transform="translate(481.81 300.09125) scale(0.08 -0.08)">
      <use xlink:href="#DejaVuSans-4f"/>
      <use xlink:href="#DejaVuSans-4f" transform="translate(78.710938 0)"/>
      <use xlink:href="#DejaVuSans-46" transform="translate(157.421875 0)"/>
      <use xlink:href="#DejaVuSans-20" transform="translate(214.941406 0)"/>
      <use xlink:href="#DejaVuSans-50" transform="translate(246.728516 0)"/>
      <use xlink:href="#DejaVuSans-52" transform="translate(307.03125 0)"/>
     </g>
    </g>
    <g id="line2d_33">
     <path d="M 459.41 309.03375 
L 467.41 309.03375 
L 475.41 309.03375 
" style="fill: none; stroke-dasharray: 4.44,1.92; stroke-dashoffset: 0; stroke: #000000; stroke-opacity: 0.7; stroke-width: 1.2"/>
    </g>
    <g id="text_35">
     <!-- External PR -->
     <g transform="translate(481.81 311.83375) scale(0.08 -0.08)">
      <use xlink:href="#DejaVuSans-45"/>
      <use xlink:href="#DejaVuSans-78" transform="translate(63.183594 0)"/>
      <use xlink:href="#DejaVuSans-74" transform="translate(122.363281 0)"/>
      <use xlink:href="#DejaVuSans-65" transform="translate(161.572266 0)"/>
      <use xlink:href="#DejaVuSans-72" transform="translate(223.095703 0)"/>
      <use xlink:href="#DejaVuSans-6e" transform="translate(262.458984 0)"/>
      <use xlink:href="#DejaVuSans-61" transform="translate(325.837891 0)"/>
      <use xlink:href="#DejaVuSans-6c" transform="translate(387.117188 0)"/>
      <use xlink:href="#DejaVuSans-20" transform="translate(414.900391 0)"/>
      <use xlink:href="#DejaVuSans-50" transform="translate(446.6875 0)"/>
      <use xlink:href="#DejaVuSans-52" transform="translate(506.990234 0)"/>
     </g>
    </g>
    <g id="PathCollection_4">
     <g>
      <use xlink:href="#me2e0d7a8ee" x="467.41" y="321.47625" style="fill: #dc143c; stroke: #dc143c"/>
     </g>
    </g>
    <g id="text_36">
     <!-- Max-F1 thr=0.616 -->
     <g transform="translate(481.81 323.57625) scale(0.08 -0.08)">
      <use xlink:href="#DejaVuSans-4d"/>
      <use xlink:href="#DejaVuSans-61" transform="translate(86.279297 0)"/>
      <use xlink:href="#DejaVuSans-78" transform="translate(147.558594 0)"/>
      <use xlink:href="#DejaVuSans-2d" transform="translate(206.738281 0)"/>
      <use xlink:href="#DejaVuSans-46" transform="translate(242.822266 0)"/>
      <use xlink:href="#DejaVuSans-31" transform="translate(300.341797 0)"/>
      <use xlink:href="#DejaVuSans-20" transform="translate(363.964844 0)"/>
      <use xlink:href="#DejaVuSans-74" transform="translate(395.751953 0)"/>
      <use xlink:href="#DejaVuSans-68" transform="translate(434.960938 0)"/>
      <use xlink:href="#DejaVuSans-72" transform="translate(498.339844 0)"/>
      <use xlink:href="#DejaVuSans-3d" transform="translate(539.453125 0)"/>
      <use xlink:href="#DejaVuSans-30" transform="translate(623.242188 0)"/>
      <use xlink:href="#DejaVuSans-2e" transform="translate(686.865234 0)"/>
      <use xlink:href="#DejaVuSans-36" transform="translate(718.652344 0)"/>
      <use xlink:href="#DejaVuSans-31" transform="translate(782.275391 0)"/>
      <use xlink:href="#DejaVuSans-36" transform="translate(845.898438 0)"/>
     </g>
    </g>
   </g>
  </g>
  <g id="axes_3">
   <g id="patch_8">
    <path d="M 856.61 332.44 
L 1205.235 332.44 
L 1205.235 66.48 
L 856.61 66.48 
z
" style="fill: #ffffff"/>
   </g>
   <g id="matplotlib.axis_5">
    <g id="xtick_13">
     <g id="line2d_34">
      <g>
       <use xlink:href="#m23eb92b213" x="856.61" y="332.44" style="stroke: #000000; stroke-width: 0.8"/>
      </g>
     </g>
     <g id="text_37">
      <!-- 0.0 -->
      <g transform="translate(848.658438 347.038437) scale(0.1 -0.1)">
       <use xlink:href="#DejaVuSans-30"/>
       <use xlink:href="#DejaVuSans-2e" transform="translate(63.623047 0)"/>
       <use xlink:href="#DejaVuSans-30" transform="translate(95.410156 0)"/>
      </g>
     </g>
    </g>
    <g id="xtick_14">
     <g id="line2d_35">
      <g>
       <use xlink:href="#m23eb92b213" x="926.335" y="332.44" style="stroke: #000000; stroke-width: 0.8"/>
      </g>
     </g>
     <g id="text_38">
      <!-- 0.2 -->
      <g transform="translate(918.383438 347.038437) scale(0.1 -0.1)">
       <use xlink:href="#DejaVuSans-30"/>
       <use xlink:href="#DejaVuSans-2e" transform="translate(63.623047 0)"/>
       <use xlink:href="#DejaVuSans-32" transform="translate(95.410156 0)"/>
      </g>
     </g>
    </g>
    <g id="xtick_15">
     <g id="line2d_36">
      <g>
       <use xlink:href="#m23eb92b213" x="996.06" y="332.44" style="stroke: #000000; stroke-width: 0.8"/>
      </g>
     </g>
     <g id="text_39">
      <!-- 0.4 -->
      <g transform="translate(988.108438 347.038437) scale(0.1 -0.1)">
       <use xlink:href="#DejaVuSans-30"/>
       <use xlink:href="#DejaVuSans-2e" transform="translate(63.623047 0)"/>
       <use xlink:href="#DejaVuSans-34" transform="translate(95.410156 0)"/>
      </g>
     </g>
    </g>
    <g id="xtick_16">
     <g id="line2d_37">
      <g>
       <use xlink:href="#m23eb92b213" x="1065.785" y="332.44" style="stroke: #000000; stroke-width: 0.8"/>
      </g>
     </g>
     <g id="text_40">
      <!-- 0.6 -->
      <g transform="translate(1057.833438 347.038437) scale(0.1 -0.1)">
       <use xlink:href="#DejaVuSans-30"/>
       <use xlink:href="#DejaVuSans-2e" transform="translate(63.623047 0)"/>
       <use xlink:href="#DejaVuSans-36" transform="translate(95.410156 0)"/>
      </g>
     </g>
    </g>
    <g id="xtick_17">
     <g id="line2d_38">
      <g>
       <use xlink:href="#m23eb92b213" x="1135.51" y="332.44" style="stroke: #000000; stroke-width: 0.8"/>
      </g>
     </g>
     <g id="text_41">
      <!-- 0.8 -->
      <g transform="translate(1127.558438 347.038437) scale(0.1 -0.1)">
       <use xlink:href="#DejaVuSans-30"/>
       <use xlink:href="#DejaVuSans-2e" transform="translate(63.623047 0)"/>
       <use xlink:href="#DejaVuSans-38" transform="translate(95.410156 0)"/>
      </g>
     </g>
    </g>
    <g id="xtick_18">
     <g id="line2d_39">
      <g>
       <use xlink:href="#m23eb92b213" x="1205.235" y="332.44" style="stroke: #000000; stroke-width: 0.8"/>
      </g>
     </g>
     <g id="text_42">
      <!-- 1.0 -->
      <g transform="translate(1197.283438 347.038437) scale(0.1 -0.1)">
       <use xlink:href="#DejaVuSans-31"/>
       <use xlink:href="#DejaVuSans-2e" transform="translate(63.623047 0)"/>
       <use xlink:href="#DejaVuSans-30" transform="translate(95.410156 0)"/>
      </g>
     </g>
    </g>
    <g id="text_43">
     <!-- Threshold -->
     <g transform="translate(1006.284219 360.716563) scale(0.1 -0.1)">
      <use xlink:href="#DejaVuSans-54"/>
      <use xlink:href="#DejaVuSans-68" transform="translate(61.083984 0)"/>
      <use xlink:href="#DejaVuSans-72" transform="translate(124.462891 0)"/>
      <use xlink:href="#DejaVuSans-65" transform="translate(163.326172 0)"/>
      <use xlink:href="#DejaVuSans-73" transform="translate(224.849609 0)"/>
      <use xlink:href="#DejaVuSans-68" transform="translate(276.949219 0)"/>
      <use xlink:href="#DejaVuSans-6f" transform="translate(340.328125 0)"/>
      <use xlink:href="#DejaVuSans-6c" transform="translate(401.509766 0)"/>
      <use xlink:href="#DejaVuSans-64" transform="translate(429.292969 0)"/>
     </g>
    </g>
   </g>
   <g id="matplotlib.axis_6">
    <g id="ytick_13">
     <g id="line2d_40">
      <g>
       <use xlink:href="#md48c5ee1fb" x="856.61" y="332.44" style="stroke: #000000; stroke-width: 0.8"/>
      </g>
     </g>
     <g id="text_44">
      <!-- 0.0 -->
      <g transform="translate(833.706875 336.239219) scale(0.1 -0.1)">
       <use xlink:href="#DejaVuSans-30"/>
       <use xlink:href="#DejaVuSans-2e" transform="translate(63.623047 0)"/>
       <use xlink:href="#DejaVuSans-30" transform="translate(95.410156 0)"/>
      </g>
     </g>
    </g>
    <g id="ytick_14">
     <g id="line2d_41">
      <g>
       <use xlink:href="#md48c5ee1fb" x="856.61" y="280.29098" style="stroke: #000000; stroke-width: 0.8"/>
      </g>
     </g>
     <g id="text_45">
      <!-- 0.2 -->
      <g transform="translate(833.706875 284.090199) scale(0.1 -0.1)">
       <use xlink:href="#DejaVuSans-30"/>
       <use xlink:href="#DejaVuSans-2e" transform="translate(63.623047 0)"/>
       <use xlink:href="#DejaVuSans-32" transform="translate(95.410156 0)"/>
      </g>
     </g>
    </g>
    <g id="ytick_15">
     <g id="line2d_42">
      <g>
       <use xlink:href="#md48c5ee1fb" x="856.61" y="228.141961" style="stroke: #000000; stroke-width: 0.8"/>
      </g>
     </g>
     <g id="text_46">
      <!-- 0.4 -->
      <g transform="translate(833.706875 231.94118) scale(0.1 -0.1)">
       <use xlink:href="#DejaVuSans-30"/>
       <use xlink:href="#DejaVuSans-2e" transform="translate(63.623047 0)"/>
       <use xlink:href="#DejaVuSans-34" transform="translate(95.410156 0)"/>
      </g>
     </g>
    </g>
    <g id="ytick_16">
     <g id="line2d_43">
      <g>
       <use xlink:href="#md48c5ee1fb" x="856.61" y="175.992941" style="stroke: #000000; stroke-width: 0.8"/>
      </g>
     </g>
     <g id="text_47">
      <!-- 0.6 -->
      <g transform="translate(833.706875 179.79216) scale(0.1 -0.1)">
       <use xlink:href="#DejaVuSans-30"/>
       <use xlink:href="#DejaVuSans-2e" transform="translate(63.623047 0)"/>
       <use xlink:href="#DejaVuSans-36" transform="translate(95.410156 0)"/>
      </g>
     </g>
    </g>
    <g id="ytick_17">
     <g id="line2d_44">
      <g>
       <use xlink:href="#md48c5ee1fb" x="856.61" y="123.843922" style="stroke: #000000; stroke-width: 0.8"/>
      </g>
     </g>
     <g id="text_48">
      <!-- 0.8 -->
      <g transform="translate(833.706875 127.64314) scale(0.1 -0.1)">
       <use xlink:href="#DejaVuSans-30"/>
       <use xlink:href="#DejaVuSans-2e" transform="translate(63.623047 0)"/>
       <use xlink:href="#DejaVuSans-38" transform="translate(95.410156 0)"/>
      </g>
     </g>
    </g>
    <g id="ytick_18">
     <g id="line2d_45">
      <g>
       <use xlink:href="#md48c5ee1fb" x="856.61" y="71.694902" style="stroke: #000000; stroke-width: 0.8"/>
      </g>
     </g>
     <g id="text_49">
      <!-- 1.0 -->
      <g transform="translate(833.706875 75.494121) scale(0.1 -0.1)">
       <use xlink:href="#DejaVuSans-31"/>
       <use xlink:href="#DejaVuSans-2e" transform="translate(63.623047 0)"/>
       <use xlink:href="#DejaVuSans-30" transform="translate(95.410156 0)"/>
      </g>
     </g>
    </g>
    <g id="text_50">
     <!-- F1 -->
     <g transform="translate(827.627188 205.517031) rotate(-90) scale(0.1 -0.1)">
      <use xlink:href="#DejaVuSans-46"/>
      <use xlink:href="#DejaVuSans-31" transform="translate(57.519531 0)"/>
     </g>
    </g>
   </g>
   <g id="line2d_46">
    <path d="M 856.61 114.82567 
L 858.353125 112.343377 
L 860.09625 111.221866 
L 861.839375 107.78769 
L 863.5825 105.438385 
L 867.06875 102.431741 
L 868.811875 102.126691 
L 870.555 101.206664 
L 872.298125 100.898353 
L 874.04125 99.031082 
L 875.784375 97.45186 
L 877.5275 97.202575 
L 881.01375 97.202575 
L 886.243125 96.239802 
L 887.98625 96.306956 
L 889.729375 95.659129 
L 891.4725 95.659129 
L 893.215625 95.072049 
L 894.95875 94.744192 
L 896.701875 93.42366 
L 898.445 93.091231 
L 900.188125 93.091231 
L 901.93125 92.816712 
L 903.674375 93.606255 
L 907.160625 93.606255 
L 908.90375 92.935373 
L 912.39 92.995206 
L 919.3625 91.638578 
L 924.591875 91.752217 
L 926.335 91.752217 
L 928.078125 91.064538 
L 931.564375 91.867159 
L 933.3075 91.867159 
L 935.050625 92.270197 
L 936.79375 92.270197 
L 938.536875 93.079752 
L 947.2525 93.141468 
L 948.995625 93.958232 
L 950.73875 93.958232 
L 952.481875 94.368389 
L 954.225 94.368389 
L 955.968125 94.022857 
L 971.65625 94.022857 
L 975.1425 93.328775 
L 976.885625 93.740406 
L 982.115 93.740406 
L 983.858125 94.153239 
L 985.60125 94.153239 
L 987.344375 93.804866 
L 989.0875 93.804866 
L 990.830625 93.105057 
L 994.316875 93.168028 
L 997.803125 93.168028 
L 999.54625 92.815639 
L 1001.289375 92.815639 
L 1003.0325 92.462211 
L 1004.775625 91.395643 
L 1013.49125 91.395643 
L 1015.234375 91.811734 
L 1018.720625 91.811734 
L 1020.46375 92.229063 
L 1029.179375 92.229063 
L 1030.9225 91.871606 
L 1044.8675 91.871606 
L 1046.610625 92.290267 
L 1050.096875 92.290267 
L 1051.84 91.572331 
L 1057.069375 91.572331 
L 1058.8125 91.211751 
L 1064.041875 91.211751 
L 1065.785 90.850089 
L 1071.014375 90.850089 
L 1074.500625 91.691894 
L 1076.24375 92.538779 
L 1079.73 92.601846 
L 1084.959375 92.601846 
L 1086.7025 93.456632 
L 1088.445625 94.748584 
L 1098.904375 94.748584 
L 1100.6475 94.385697 
L 1102.390625 94.385697 
L 1107.62 95.68985 
L 1109.363125 95.68985 
L 1111.10625 96.565973 
L 1112.849375 96.202531 
L 1133.766875 96.278288 
L 1135.51 96.719973 
L 1137.253125 96.719973 
L 1138.99625 97.242244 
L 1142.4825 97.242244 
L 1144.225625 98.135513 
L 1147.711875 99.034372 
L 1149.455 99.034372 
L 1151.198125 99.485916 
L 1152.94125 99.485916 
L 1156.4275 101.306333 
L 1159.91375 101.40004 
L 1161.656875 101.860341 
L 1163.4 102.785335 
L 1165.143125 103.250041 
L 1168.629375 103.350856 
L 1172.115625 105.231249 
L 1173.85875 105.81502 
L 1175.601875 105.188988 
L 1177.345 104.818872 
L 1179.088125 105.518979 
L 1180.83125 106.003467 
L 1182.574375 105.855537 
L 1184.3175 107.311011 
L 1186.060625 107.311011 
L 1189.546875 109.451858 
L 1191.29 109.961247 
L 1194.77625 117.439656 
L 1196.519375 124.030836 
L 1198.2625 129.373434 
L 1200.005625 138.968119 
L 1203.491875 186.332833 
L 1205.235 332.44 
L 1205.235 332.44 
" clip-path="url(#p6f0be91a65)" style="fill: none; stroke: #ca9161; stroke-width: 1.8; stroke-linecap: square"/>
   </g>
   <g id="line2d_47">
    <path d="M 856.61 121.300067 
L 858.353125 98.474128 
L 860.09625 95.917124 
L 865.325625 95.917124 
L 867.06875 94.617548 
L 868.811875 94.617548 
L 870.555 93.303612 
L 872.298125 93.303612 
L 874.04125 90.631697 
L 882.756875 90.631697 
L 884.5 87.8994 
L 914.133125 87.8994 
L 915.87625 86.509964 
L 924.591875 86.509964 
L 926.335 86.680252 
L 933.3075 86.680252 
L 935.050625 88.27407 
L 978.62875 88.27407 
L 980.371875 89.88642 
L 996.06 89.88642 
L 997.803125 88.467978 
L 1083.21625 88.467978 
L 1084.959375 87.032849 
L 1114.5925 87.032849 
L 1116.335625 85.580736 
L 1118.07875 85.580736 
L 1119.821875 87.215444 
L 1152.94125 87.215444 
L 1154.684375 88.869729 
L 1161.656875 88.869729 
L 1163.4 87.402438 
L 1173.85875 87.402438 
L 1175.601875 89.291197 
L 1179.088125 89.291197 
L 1180.83125 87.790278 
L 1184.3175 87.790278 
L 1186.060625 89.509784 
L 1193.033125 89.509784 
L 1194.77625 87.991471 
L 1198.2625 87.991471 
L 1200.005625 86.454058 
L 1201.74875 88.197756 
L 1203.491875 92.012702 
L 1205.235 332.44 
L 1205.235 332.44 
" clip-path="url(#p6f0be91a65)" style="fill: none; stroke-dasharray: 4.81,2.08; stroke-dashoffset: 0; stroke: #000000; stroke-opacity: 0.7; stroke-width: 1.3"/>
   </g>
   <g id="line2d_48">
    <path d="M 1071.417795 332.44 
L 1071.417795 66.48 
" clip-path="url(#p6f0be91a65)" style="fill: none; stroke-dasharray: 1.5,2.475; stroke-dashoffset: 0; stroke: #dc143c; stroke-width: 1.5"/>
   </g>
   <g id="patch_9">
    <path d="M 856.61 332.44 
L 856.61 66.48 
" style="fill: none; stroke: #000000; stroke-width: 1.2; stroke-linejoin: miter; stroke-linecap: square"/>
   </g>
   <g id="patch_10">
    <path d="M 856.61 332.44 
L 1205.235 332.44 
" style="fill: none; stroke: #000000; stroke-width: 1.2; stroke-linejoin: miter; stroke-linecap: square"/>
   </g>
   <g id="text_51">
    <!-- F1 vs Threshold -->
    <g transform="translate(983.5975 60.48) scale(0.12 -0.12)">
     <use xlink:href="#DejaVuSans-46"/>
     <use xlink:href="#DejaVuSans-31" transform="translate(57.519531 0)"/>
     <use xlink:href="#DejaVuSans-20" transform="translate(121.142578 0)"/>
     <use xlink:href="#DejaVuSans-76" transform="translate(152.929688 0)"/>
     <use xlink:href="#DejaVuSans-73" transform="translate(212.109375 0)"/>
     <use xlink:href="#DejaVuSans-20" transform="translate(264.208984 0)"/>
     <use xlink:href="#DejaVuSans-54" transform="translate(295.996094 0)"/>
     <use xlink:href="#DejaVuSans-68" transform="translate(357.080078 0)"/>
     <use xlink:href="#DejaVuSans-72" transform="translate(420.458984 0)"/>
     <use xlink:href="#DejaVuSans-65" transform="translate(459.322266 0)"/>
     <use xlink:href="#DejaVuSans-73" transform="translate(520.845703 0)"/>
     <use xlink:href="#DejaVuSans-68" transform="translate(572.945312 0)"/>
     <use xlink:href="#DejaVuSans-6f" transform="translate(636.324219 0)"/>
     <use xlink:href="#DejaVuSans-6c" transform="translate(697.505859 0)"/>
     <use xlink:href="#DejaVuSans-64" transform="translate(725.289062 0)"/>
    </g>
   </g>
   <g id="legend_3">
    <g id="line2d_49">
     <path d="M 863.81 297.29125 
L 871.81 297.29125 
L 879.81 297.29125 
" style="fill: none; stroke: #ca9161; stroke-width: 1.8; stroke-linecap: square"/>
    </g>
    <g id="text_52">
     <!-- OOF F1 -->
     <g transform="translate(886.21 300.09125) scale(0.08 -0.08)">
      <use xlink:href="#DejaVuSans-4f"/>
      <use xlink:href="#DejaVuSans-4f" transform="translate(78.710938 0)"/>
      <use xlink:href="#DejaVuSans-46" transform="translate(157.421875 0)"/>
      <use xlink:href="#DejaVuSans-20" transform="translate(214.941406 0)"/>
      <use xlink:href="#DejaVuSans-46" transform="translate(246.728516 0)"/>
      <use xlink:href="#DejaVuSans-31" transform="translate(304.248047 0)"/>
     </g>
    </g>
    <g id="line2d_50">
     <path d="M 863.81 309.03375 
L 871.81 309.03375 
L 879.81 309.03375 
" style="fill: none; stroke-dasharray: 4.81,2.08; stroke-dashoffset: 0; stroke: #000000; stroke-opacity: 0.7; stroke-width: 1.3"/>
    </g>
    <g id="text_53">
     <!-- External F1 -->
     <g transform="translate(886.21 311.83375) scale(0.08 -0.08)">
      <use xlink:href="#DejaVuSans-45"/>
      <use xlink:href="#DejaVuSans-78" transform="translate(63.183594 0)"/>
      <use xlink:href="#DejaVuSans-74" transform="translate(122.363281 0)"/>
      <use xlink:href="#DejaVuSans-65" transform="translate(161.572266 0)"/>
      <use xlink:href="#DejaVuSans-72" transform="translate(223.095703 0)"/>
      <use xlink:href="#DejaVuSans-6e" transform="translate(262.458984 0)"/>
      <use xlink:href="#DejaVuSans-61" transform="translate(325.837891 0)"/>
      <use xlink:href="#DejaVuSans-6c" transform="translate(387.117188 0)"/>
      <use xlink:href="#DejaVuSans-20" transform="translate(414.900391 0)"/>
      <use xlink:href="#DejaVuSans-46" transform="translate(446.6875 0)"/>
      <use xlink:href="#DejaVuSans-31" transform="translate(504.207031 0)"/>
     </g>
    </g>
    <g id="line2d_51">
     <path d="M 863.81 320.77625 
L 871.81 320.77625 
L 879.81 320.77625 
" style="fill: none; stroke-dasharray: 1.5,2.475; stroke-dashoffset: 0; stroke: #dc143c; stroke-width: 1.5"/>
    </g>
    <g id="text_54">
     <!-- Locked thr=0.616 -->
     <g transform="translate(886.21 323.57625) scale(0.08 -0.08)">
      <defs>
       <path id="DejaVuSans-4c" d="M 628 4666 
L 1259 4666 
L 1259 531 
L 3531 531 
L 3531 0 
L 628 0 
L 628 4666 
z
" transform="scale(0.015625)"/>
       <path id="DejaVuSans-6b" d="M 581 4863 
L 1159 4863 
L 1159 1991 
L 2875 3500 
L 3609 3500 
L 1753 1863 
L 3688 0 
L 2938 0 
L 1159 1709 
L 1159 0 
L 581 0 
L 581 4863 
z
" transform="scale(0.015625)"/>
      </defs>
      <use xlink:href="#DejaVuSans-4c"/>
      <use xlink:href="#DejaVuSans-6f" transform="translate(53.962891 0)"/>
      <use xlink:href="#DejaVuSans-63" transform="translate(115.144531 0)"/>
      <use xlink:href="#DejaVuSans-6b" transform="translate(170.125 0)"/>
      <use xlink:href="#DejaVuSans-65" transform="translate(224.410156 0)"/>
      <use xlink:href="#DejaVuSans-64" transform="translate(285.933594 0)"/>
      <use xlink:href="#DejaVuSans-20" transform="translate(349.410156 0)"/>
      <use xlink:href="#DejaVuSans-74" transform="translate(381.197266 0)"/>
      <use xlink:href="#DejaVuSans-68" transform="translate(420.40625 0)"/>
      <use xlink:href="#DejaVuSans-72" transform="translate(483.785156 0)"/>
      <use xlink:href="#DejaVuSans-3d" transform="translate(524.898438 0)"/>
      <use xlink:href="#DejaVuSans-30" transform="translate(608.6875 0)"/>
      <use xlink:href="#DejaVuSans-2e" transform="translate(672.310547 0)"/>
      <use xlink:href="#DejaVuSans-36" transform="translate(704.097656 0)"/>
      <use xlink:href="#DejaVuSans-31" transform="translate(767.720703 0)"/>
      <use xlink:href="#DejaVuSans-36" transform="translate(831.34375 0)"/>
     </g>
    </g>
   </g>
  </g>
  <g id="text_55">
   <!-- Threshold Analysis | Seed=26 | Model=XGBC -->
   <g transform="translate(476.468437 16.658625) scale(0.12 -0.12)">
    <defs>
     <path id="DejaVuSans-41" d="M 2188 4044 
L 1331 1722 
L 3047 1722 
L 2188 4044 
z
M 1831 4666 
L 2547 4666 
L 4325 0 
L 3669 0 
L 3244 1197 
L 1141 1197 
L 716 0 
L 50 0 
L 1831 4666 
z
" transform="scale(0.015625)"/>
     <path id="DejaVuSans-79" d="M 2059 -325 
Q 1816 -950 1584 -1140 
Q 1353 -1331 966 -1331 
L 506 -1331 
L 506 -850 
L 844 -850 
Q 1081 -850 1212 -737 
Q 1344 -625 1503 -206 
L 1606 56 
L 191 3500 
L 800 3500 
L 1894 763 
L 2988 3500 
L 3597 3500 
L 2059 -325 
z
" transform="scale(0.015625)"/>
     <path id="DejaVuSans-7c" d="M 1344 4891 
L 1344 -1509 
L 813 -1509 
L 813 4891 
L 1344 4891 
z
" transform="scale(0.015625)"/>
     <path id="DejaVuSans-53" d="M 3425 4513 
L 3425 3897 
Q 3066 4069 2747 4153 
Q 2428 4238 2131 4238 
Q 1616 4238 1336 4038 
Q 1056 3838 1056 3469 
Q 1056 3159 1242 3001 
Q 1428 2844 1947 2747 
L 2328 2669 
Q 3034 2534 3370 2195 
Q 3706 1856 3706 1288 
Q 3706 609 3251 259 
Q 2797 -91 1919 -91 
Q 1588 -91 1214 -16 
Q 841 59 441 206 
L 441 856 
Q 825 641 1194 531 
Q 1563 422 1919 422 
Q 2459 422 2753 634 
Q 3047 847 3047 1241 
Q 3047 1584 2836 1778 
Q 2625 1972 2144 2069 
L 1759 2144 
Q 1053 2284 737 2584 
Q 422 2884 422 3419 
Q 422 4038 858 4394 
Q 1294 4750 2059 4750 
Q 2388 4750 2728 4690 
Q 3069 4631 3425 4513 
z
" transform="scale(0.015625)"/>
     <path id="DejaVuSans-58" d="M 403 4666 
L 1081 4666 
L 2241 2931 
L 3406 4666 
L 4084 4666 
L 2584 2425 
L 4184 0 
L 3506 0 
L 2194 1984 
L 872 0 
L 191 0 
L 1856 2491 
L 403 4666 
z
" transform="scale(0.015625)"/>
     <path id="DejaVuSans-47" d="M 3809 666 
L 3809 1919 
L 2778 1919 
L 2778 2438 
L 4434 2438 
L 4434 434 
Q 4069 175 3628 42 
Q 3188 -91 2688 -91 
Q 1594 -91 976 548 
Q 359 1188 359 2328 
Q 359 3472 976 4111 
Q 1594 4750 2688 4750 
Q 3144 4750 3555 4637 
Q 3966 4525 4313 4306 
L 4313 3634 
Q 3963 3931 3569 4081 
Q 3175 4231 2741 4231 
Q 1884 4231 1454 3753 
Q 1025 3275 1025 2328 
Q 1025 1384 1454 906 
Q 1884 428 2741 428 
Q 3075 428 3337 486 
Q 3600 544 3809 666 
z
" transform="scale(0.015625)"/>
     <path id="DejaVuSans-42" d="M 1259 2228 
L 1259 519 
L 2272 519 
Q 2781 519 3026 730 
Q 3272 941 3272 1375 
Q 3272 1813 3026 2020 
Q 2781 2228 2272 2228 
L 1259 2228 
z
M 1259 4147 
L 1259 2741 
L 2194 2741 
Q 2656 2741 2882 2914 
Q 3109 3088 3109 3444 
Q 3109 3797 2882 3972 
Q 2656 4147 2194 4147 
L 1259 4147 
z
M 628 4666 
L 2241 4666 
Q 2963 4666 3353 4366 
Q 3744 4066 3744 3513 
Q 3744 3084 3544 2831 
Q 3344 2578 2956 2516 
Q 3422 2416 3680 2098 
Q 3938 1781 3938 1306 
Q 3938 681 3513 340 
Q 3088 0 2303 0 
L 628 0 
L 628 4666 
z
" transform="scale(0.015625)"/>
    </defs>
    <use xlink:href="#DejaVuSans-54"/>
    <use xlink:href="#DejaVuSans-68" transform="translate(61.083984 0)"/>
    <use xlink:href="#DejaVuSans-72" transform="translate(124.462891 0)"/>
    <use xlink:href="#DejaVuSans-65" transform="translate(163.326172 0)"/>
    <use xlink:href="#DejaVuSans-73" transform="translate(224.849609 0)"/>
    <use xlink:href="#DejaVuSans-68" transform="translate(276.949219 0)"/>
    <use xlink:href="#DejaVuSans-6f" transform="translate(340.328125 0)"/>
    <use xlink:href="#DejaVuSans-6c" transform="translate(401.509766 0)"/>
    <use xlink:href="#DejaVuSans-64" transform="translate(429.292969 0)"/>
    <use xlink:href="#DejaVuSans-20" transform="translate(492.769531 0)"/>
    <use xlink:href="#DejaVuSans-41" transform="translate(524.556641 0)"/>
    <use xlink:href="#DejaVuSans-6e" transform="translate(592.964844 0)"/>
    <use xlink:href="#DejaVuSans-61" transform="translate(656.34375 0)"/>
    <use xlink:href="#DejaVuSans-6c" transform="translate(717.623047 0)"/>
    <use xlink:href="#DejaVuSans-79" transform="translate(745.40625 0)"/>
    <use xlink:href="#DejaVuSans-73" transform="translate(804.585938 0)"/>
    <use xlink:href="#DejaVuSans-69" transform="translate(856.685547 0)"/>
    <use xlink:href="#DejaVuSans-73" transform="translate(884.46875 0)"/>
    <use xlink:href="#DejaVuSans-20" transform="translate(936.568359 0)"/>
    <use xlink:href="#DejaVuSans-7c" transform="translate(968.355469 0)"/>
    <use xlink:href="#DejaVuSans-20" transform="translate(1002.046875 0)"/>
    <use xlink:href="#DejaVuSans-53" transform="translate(1033.833984 0)"/>
    <use xlink:href="#DejaVuSans-65" transform="translate(1097.310547 0)"/>
    <use xlink:href="#DejaVuSans-65" transform="translate(1158.833984 0)"/>
    <use xlink:href="#DejaVuSans-64" transform="translate(1220.357422 0)"/>
    <use xlink:href="#DejaVuSans-3d" transform="translate(1283.833984 0)"/>
    <use xlink:href="#DejaVuSans-32" transform="translate(1367.623047 0)"/>
    <use xlink:href="#DejaVuSans-36" transform="translate(1431.246094 0)"/>
    <use xlink:href="#DejaVuSans-20" transform="translate(1494.869141 0)"/>
    <use xlink:href="#DejaVuSans-7c" transform="translate(1526.65625 0)"/>
    <use xlink:href="#DejaVuSans-20" transform="translate(1560.347656 0)"/>
    <use xlink:href="#DejaVuSans-4d" transform="translate(1592.134766 0)"/>
    <use xlink:href="#DejaVuSans-6f" transform="translate(1678.414062 0)"/>
    <use xlink:href="#DejaVuSans-64" transform="translate(1739.595703 0)"/>
    <use xlink:href="#DejaVuSans-65" transform="translate(1803.072266 0)"/>
    <use xlink:href="#DejaVuSans-6c" transform="translate(1864.595703 0)"/>
    <use xlink:href="#DejaVuSans-3d" transform="translate(1892.378906 0)"/>
    <use xlink:href="#DejaVuSans-58" transform="translate(1976.167969 0)"/>
    <use xlink:href="#DejaVuSans-47" transform="translate(2044.673828 0)"/>
    <use xlink:href="#DejaVuSans-42" transform="translate(2122.164062 0)"/>
    <use xlink:href="#DejaVuSans-43" transform="translate(2189.017578 0)"/>
   </g>
  </g>
 </g>
 <defs>
  <clipPath id="pa477d634d3">
   <rect x="47.81" y="66.48" width="348.625" height="265.96"/>
  </clipPath>
  <clipPath id="p3488d0ef8e">
   <rect x="452.21" y="66.48" width="348.625" height="265.96"/>
  </clipPath>
  <clipPath id="p6f0be91a65">
   <rect x="856.61" y="66.48" width="348.625" height="265.96"/>
  </clipPath>
 </defs>
</svg>
