<?xml version="1.0" encoding="utf-8" standalone="no"?>
<!DOCTYPE svg PUBLIC "-//W3C//DTD SVG 1.1//EN"
  "http://www.w3.org/Graphics/SVG/1.1/DTD/svg11.dtd">
<svg xmlns:xlink="http://www.w3.org/1999/xlink" width="1224pt" height="374.4pt" viewBox="0 0 1224 374.4" xmlns="http://www.w3.org/2000/svg" version="1.1">
 <metadata>
  <rdf:RDF xmlns:dc="http://purl.org/dc/elements/1.1/" xmlns:cc="http://creativecommons.org/ns#" xmlns:rdf="http://www.w3.org/1999/02/22-rdf-syntax-ns#">
   <cc:Work>
    <dc:type rdf:resource="http://purl.org/dc/dcmitype/StillImage"/>
    <dc:date>2026-04-09T20:03:43.384644</dc:date>
    <dc:format>image/svg+xml</dc:format>
    <dc:creator>
     <cc:Agent>
      <dc:title>Matplotlib v3.10.8, https://matplotlib.org/</dc:title>
     </cc:Agent>
    </dc:creator>
   </cc:Work>
  </rdf:RDF>
 </metadata>
 <defs>
  <style type="text/css">*{stroke-linejoin: round; stroke-linecap: butt}</style>
 </defs>
 <g id="figure_1">
  <g id="patch_1">
   <path d="M 0 374.4 
L 1224 374.4 
L 1224 0 
L 0 0 
z
" style="fill: #ffffff"/>
  </g>
  <g id="axes_1">
   <g id="patch_2">
    <path d="M 47.81 332.44 
L 396.435 332.44 
L 396.435 66.48 
L 47.81 66.48 
z
" style="fill: #ffffff"/>
   </g>
   <g id="matplotlib.axis_1">
    <g id="xtick_1">
     <g id="line2d_1">
      <defs>
       <path id="m5d88a81607" d="M 0 0 
L 0 3.5 
" style="stroke: #000000; stroke-width: 0.8"/>
      </defs>
      <g>
       <use xlink:href="#m5d88a81607" x="47.81" y="332.44" style="stroke: #000000; stroke-width: 0.8"/>
      </g>
     </g>
     <g id="text_1">
      <!-- 0.0 -->
      <g transform="translate(39.858438 347.038437) scale(0.1 -0.1)">
       <defs>
        <path id="DejaVuSans-30" d="M 2034 4250 
Q 1547 4250 1301 3770 
Q 1056 3291 1056 2328 
Q 1056 1369 1301 889 
Q 1547 409 2034 409 
Q 2525 409 2770 889 
Q 3016 1369 3016 2328 
Q 3016 3291 2770 3770 
Q 2525 4250 2034 4250 
z
M 2034 4750 
Q 2819 4750 3233 4129 
Q 3647 3509 3647 2328 
Q 3647 1150 3233 529 
Q 2819 -91 2034 -91 
Q 1250 -91 836 529 
Q 422 1150 422 2328 
Q 422 3509 836 4129 
Q 1250 4750 2034 4750 
z
" transform="scale(0.015625)"/>
        <path id="DejaVuSans-2e" d="M 684 794 
L 1344 794 
L 1344 0 
L 684 0 
L 684 794 
z
" transform="scale(0.015625)"/>
       </defs>
       <use xlink:href="#DejaVuSans-30"/>
       <use xlink:href="#DejaVuSans-2e" transform="translate(63.623047 0)"/>
       <use xlink:href="#DejaVuSans-30" transform="translate(95.410156 0)"/>
      </g>
     </g>
    </g>
    <g id="xtick_2">
     <g id="line2d_2">
      <g>
       <use xlink:href="#m5d88a81607" x="117.535" y="332.44" style="stroke: #000000; stroke-width: 0.8"/>
      </g>
     </g>
     <g id="text_2">
      <!-- 0.2 -->
      <g transform="translate(109.583437 347.038437) scale(0.1 -0.1)">
       <defs>
        <path id="DejaVuSans-32" d="M 1228 531 
L 3431 531 
L 3431 0 
L 469 0 
L 469 531 
Q 828 903 1448 1529 
Q 2069 2156 2228 2338 
Q 2531 2678 2651 2914 
Q 2772 3150 2772 3378 
Q 2772 3750 2511 3984 
Q 2250 4219 1831 4219 
Q 1534 4219 1204 4116 
Q 875 4013 500 3803 
L 500 4441 
Q 881 4594 1212 4672 
Q 1544 4750 1819 4750 
Q 2544 4750 2975 4387 
Q 3406 4025 3406 3419 
Q 3406 3131 3298 2873 
Q 3191 2616 2906 2266 
Q 2828 2175 2409 1742 
Q 1991 1309 1228 531 
z
" transform="scale(0.015625)"/>
       </defs>
       <use xlink:href="#DejaVuSans-30"/>
       <use xlink:href="#DejaVuSans-2e" transform="translate(63.623047 0)"/>
       <use xlink:href="#DejaVuSans-32" transform="translate(95.410156 0)"/>
      </g>
     </g>
    </g>
    <g id="xtick_3">
     <g id="line2d_3">
      <g>
       <use xlink:href="#m5d88a81607" x="187.26" y="332.44" style="stroke: #000000; stroke-width: 0.8"/>
      </g>
     </g>
     <g id="text_3">
      <!-- 0.4 -->
      <g transform="translate(179.308437 347.038437) scale(0.1 -0.1)">
       <defs>
        <path id="DejaVuSans-34" d="M 2419 4116 
L 825 1625 
L 2419 1625 
L 2419 4116 
z
M 2253 4666 
L 3047 4666 
L 3047 1625 
L 3713 1625 
L 3713 1100 
L 3047 1100 
L 3047 0 
L 2419 0 
L 2419 1100 
L 313 1100 
L 313 1709 
L 2253 4666 
z
" transform="scale(0.015625)"/>
       </defs>
       <use xlink:href="#DejaVuSans-30"/>
       <use xlink:href="#DejaVuSans-2e" transform="translate(63.623047 0)"/>
       <use xlink:href="#DejaVuSans-34" transform="translate(95.410156 0)"/>
      </g>
     </g>
    </g>
    <g id="xtick_4">
     <g id="line2d_4">
      <g>
       <use xlink:href="#m5d88a81607" x="256.985" y="332.44" style="stroke: #000000; stroke-width: 0.8"/>
      </g>
     </g>
     <g id="text_4">
      <!-- 0.6 -->
      <g transform="translate(249.033437 347.038437) scale(0.1 -0.1)">
       <defs>
        <path id="DejaVuSans-36" d="M 2113 2584 
Q 1688 2584 1439 2293 
Q 1191 2003 1191 1497 
Q 1191 994 1439 701 
Q 1688 409 2113 409 
Q 2538 409 2786 701 
Q 3034 994 3034 1497 
Q 3034 2003 2786 2293 
Q 2538 2584 2113 2584 
z
M 3366 4563 
L 3366 3988 
Q 3128 4100 2886 4159 
Q 2644 4219 2406 4219 
Q 1781 4219 1451 3797 
Q 1122 3375 1075 2522 
Q 1259 2794 1537 2939 
Q 1816 3084 2150 3084 
Q 2853 3084 3261 2657 
Q 3669 2231 3669 1497 
Q 3669 778 3244 343 
Q 2819 -91 2113 -91 
Q 1303 -91 875 529 
Q 447 1150 447 2328 
Q 447 3434 972 4092 
Q 1497 4750 2381 4750 
Q 2619 4750 2861 4703 
Q 3103 4656 3366 4563 
z
" transform="scale(0.015625)"/>
       </defs>
       <use xlink:href="#DejaVuSans-30"/>
       <use xlink:href="#DejaVuSans-2e" transform="translate(63.623047 0)"/>
       <use xlink:href="#DejaVuSans-36" transform="translate(95.410156 0)"/>
      </g>
     </g>
    </g>
    <g id="xtick_5">
     <g id="line2d_5">
      <g>
       <use xlink:href="#m5d88a81607" x="326.71" y="332.44" style="stroke: #000000; stroke-width: 0.8"/>
      </g>
     </g>
     <g id="text_5">
      <!-- 0.8 -->
      <g transform="translate(318.758437 347.038437) scale(0.1 -0.1)">
       <defs>
        <path id="DejaVuSans-38" d="M 2034 2216 
Q 1584 2216 1326 1975 
Q 1069 1734 1069 1313 
Q 1069 891 1326 650 
Q 1584 409 2034 409 
Q 2484 409 2743 651 
Q 3003 894 3003 1313 
Q 3003 1734 2745 1975 
Q 2488 2216 2034 2216 
z
M 1403 2484 
Q 997 2584 770 2862 
Q 544 3141 544 3541 
Q 544 4100 942 4425 
Q 1341 4750 2034 4750 
Q 2731 4750 3128 4425 
Q 3525 4100 3525 3541 
Q 3525 3141 3298 2862 
Q 3072 2584 2669 2484 
Q 3125 2378 3379 2068 
Q 3634 1759 3634 1313 
Q 3634 634 3220 271 
Q 2806 -91 2034 -91 
Q 1263 -91 848 271 
Q 434 634 434 1313 
Q 434 1759 690 2068 
Q 947 2378 1403 2484 
z
M 1172 3481 
Q 1172 3119 1398 2916 
Q 1625 2713 2034 2713 
Q 2441 2713 2670 2916 
Q 2900 3119 2900 3481 
Q 2900 3844 2670 4047 
Q 2441 4250 2034 4250 
Q 1625 4250 1398 4047 
Q 1172 3844 1172 3481 
z
" transform="scale(0.015625)"/>
       </defs>
       <use xlink:href="#DejaVuSans-30"/>
       <use xlink:href="#DejaVuSans-2e" transform="translate(63.623047 0)"/>
       <use xlink:href="#DejaVuSans-38" transform="translate(95.410156 0)"/>
      </g>
     </g>
    </g>
    <g id="xtick_6">
     <g id="line2d_6">
      <g>
       <use xlink:href="#m5d88a81607" x="396.435" y="332.44" style="stroke: #000000; stroke-width: 0.8"/>
      </g>
     </g>
     <g id="text_6">
      <!-- 1.0 -->
      <g transform="translate(388.483437 347.038437) scale(0.1 -0.1)">
       <defs>
        <path id="DejaVuSans-31" d="M 794 531 
L 1825 531 
L 1825 4091 
L 703 3866 
L 703 4441 
L 1819 4666 
L 2450 4666 
L 2450 531 
L 3481 531 
L 3481 0 
L 794 0 
L 794 531 
z
" transform="scale(0.015625)"/>
       </defs>
       <use xlink:href="#DejaVuSans-31"/>
       <use xlink:href="#DejaVuSans-2e" transform="translate(63.623047 0)"/>
       <use xlink:href="#DejaVuSans-30" transform="translate(95.410156 0)"/>
      </g>
     </g>
    </g>
    <g id="text_7">
     <!-- False Positive Rate -->
     <g transform="translate(175.656094 360.716563) scale(0.1 -0.1)">
      <defs>
       <path id="DejaVuSans-46" d="M 628 4666 
L 3309 4666 
L 3309 4134 
L 1259 4134 
L 1259 2759 
L 3109 2759 
L 3109 2228 
L 1259 2228 
L 1259 0 
L 628 0 
L 628 4666 
z
" transform="scale(0.015625)"/>
       <path id="DejaVuSans-61" d="M 2194 1759 
Q 1497 1759 1228 1600 
Q 959 1441 959 1056 
Q 959 750 1161 570 
Q 1363 391 1709 391 
Q 2188 391 2477 730 
Q 2766 1069 2766 1631 
L 2766 1759 
L 2194 1759 
z
M 3341 1997 
L 3341 0 
L 2766 0 
L 2766 531 
Q 2569 213 2275 61 
Q 1981 -91 1556 -91 
Q 1019 -91 701 211 
Q 384 513 384 1019 
Q 384 1609 779 1909 
Q 1175 2209 1959 2209 
L 2766 2209 
L 2766 2266 
Q 2766 2663 2505 2880 
Q 2244 3097 1772 3097 
Q 1472 3097 1187 3025 
Q 903 2953 641 2809 
L 641 3341 
Q 956 3463 1253 3523 
Q 1550 3584 1831 3584 
Q 2591 3584 2966 3190 
Q 3341 2797 3341 1997 
z
" transform="scale(0.015625)"/>
       <path id="DejaVuSans-6c" d="M 603 4863 
L 1178 4863 
L 1178 0 
L 603 0 
L 603 4863 
z
" transform="scale(0.015625)"/>
       <path id="DejaVuSans-73" d="M 2834 3397 
L 2834 2853 
Q 2591 2978 2328 3040 
Q 2066 3103 1784 3103 
Q 1356 3103 1142 2972 
Q 928 2841 928 2578 
Q 928 2378 1081 2264 
Q 1234 2150 1697 2047 
L 1894 2003 
Q 2506 1872 2764 1633 
Q 3022 1394 3022 966 
Q 3022 478 2636 193 
Q 2250 -91 1575 -91 
Q 1294 -91 989 -36 
Q 684 19 347 128 
L 347 722 
Q 666 556 975 473 
Q 1284 391 1588 391 
Q 1994 391 2212 530 
Q 2431 669 2431 922 
Q 2431 1156 2273 1281 
Q 2116 1406 1581 1522 
L 1381 1569 
Q 847 1681 609 1914 
Q 372 2147 372 2553 
Q 372 3047 722 3315 
Q 1072 3584 1716 3584 
Q 2034 3584 2315 3537 
Q 2597 3491 2834 3397 
z
" transform="scale(0.015625)"/>
       <path id="DejaVuSans-65" d="M 3597 1894 
L 3597 1613 
L 953 1613 
Q 991 1019 1311 708 
Q 1631 397 2203 397 
Q 2534 397 2845 478 
Q 3156 559 3463 722 
L 3463 178 
Q 3153 47 2828 -22 
Q 2503 -91 2169 -91 
Q 1331 -91 842 396 
Q 353 884 353 1716 
Q 353 2575 817 3079 
Q 1281 3584 2069 3584 
Q 2775 3584 3186 3129 
Q 3597 2675 3597 1894 
z
M 3022 2063 
Q 3016 2534 2758 2815 
Q 2500 3097 2075 3097 
Q 1594 3097 1305 2825 
Q 1016 2553 972 2059 
L 3022 2063 
z
" transform="scale(0.015625)"/>
       <path id="DejaVuSans-20" transform="scale(0.015625)"/>
       <path id="DejaVuSans-50" d="M 1259 4147 
L 1259 2394 
L 2053 2394 
Q 2494 2394 2734 2622 
Q 2975 2850 2975 3272 
Q 2975 3691 2734 3919 
Q 2494 4147 2053 4147 
L 1259 4147 
z
M 628 4666 
L 2053 4666 
Q 2838 4666 3239 4311 
Q 3641 3956 3641 3272 
Q 3641 2581 3239 2228 
Q 2838 1875 2053 1875 
L 1259 1875 
L 1259 0 
L 628 0 
L 628 4666 
z
" transform="scale(0.015625)"/>
       <path id="DejaVuSans-6f" d="M 1959 3097 
Q 1497 3097 1228 2736 
Q 959 2375 959 1747 
Q 959 1119 1226 758 
Q 1494 397 1959 397 
Q 2419 397 2687 759 
Q 2956 1122 2956 1747 
Q 2956 2369 2687 2733 
Q 2419 3097 1959 3097 
z
M 1959 3584 
Q 2709 3584 3137 3096 
Q 3566 2609 3566 1747 
Q 3566 888 3137 398 
Q 2709 -91 1959 -91 
Q 1206 -91 779 398 
Q 353 888 353 1747 
Q 353 2609 779 3096 
Q 1206 3584 1959 3584 
z
" transform="scale(0.015625)"/>
       <path id="DejaVuSans-69" d="M 603 3500 
L 1178 3500 
L 1178 0 
L 603 0 
L 603 3500 
z
M 603 4863 
L 1178 4863 
L 1178 4134 
L 603 4134 
L 603 4863 
z
" transform="scale(0.015625)"/>
       <path id="DejaVuSans-74" d="M 1172 4494 
L 1172 3500 
L 2356 3500 
L 2356 3053 
L 1172 3053 
L 1172 1153 
Q 1172 725 1289 603 
Q 1406 481 1766 481 
L 2356 481 
L 2356 0 
L 1766 0 
Q 1100 0 847 248 
Q 594 497 594 1153 
L 594 3053 
L 172 3053 
L 172 3500 
L 594 3500 
L 594 4494 
L 1172 4494 
z
" transform="scale(0.015625)"/>
       <path id="DejaVuSans-76" d="M 191 3500 
L 800 3500 
L 1894 563 
L 2988 3500 
L 3597 3500 
L 2284 0 
L 1503 0 
L 191 3500 
z
" transform="scale(0.015625)"/>
       <path id="DejaVuSans-52" d="M 2841 2188 
Q 3044 2119 3236 1894 
Q 3428 1669 3622 1275 
L 4263 0 
L 3584 0 
L 2988 1197 
Q 2756 1666 2539 1819 
Q 2322 1972 1947 1972 
L 1259 1972 
L 1259 0 
L 628 0 
L 628 4666 
L 2053 4666 
Q 2853 4666 3247 4331 
Q 3641 3997 3641 3322 
Q 3641 2881 3436 2590 
Q 3231 2300 2841 2188 
z
M 1259 4147 
L 1259 2491 
L 2053 2491 
Q 2509 2491 2742 2702 
Q 2975 2913 2975 3322 
Q 2975 3731 2742 3939 
Q 2509 4147 2053 4147 
L 1259 4147 
z
" transform="scale(0.015625)"/>
      </defs>
      <use xlink:href="#DejaVuSans-46"/>
      <use xlink:href="#DejaVuSans-61" transform="translate(48.394531 0)"/>
      <use xlink:href="#DejaVuSans-6c" transform="translate(109.673828 0)"/>
      <use xlink:href="#DejaVuSans-73" transform="translate(137.457031 0)"/>
      <use xlink:href="#DejaVuSans-65" transform="translate(189.556641 0)"/>
      <use xlink:href="#DejaVuSans-20" transform="translate(251.080078 0)"/>
      <use xlink:href="#DejaVuSans-50" transform="translate(282.867188 0)"/>
      <use xlink:href="#DejaVuSans-6f" transform="translate(339.544922 0)"/>
      <use xlink:href="#DejaVuSans-73" transform="translate(400.726562 0)"/>
      <use xlink:href="#DejaVuSans-69" transform="translate(452.826172 0)"/>
      <use xlink:href="#DejaVuSans-74" transform="translate(480.609375 0)"/>
      <use xlink:href="#DejaVuSans-69" transform="translate(519.818359 0)"/>
      <use xlink:href="#DejaVuSans-76" transform="translate(547.601562 0)"/>
      <use xlink:href="#DejaVuSans-65" transform="translate(606.78125 0)"/>
      <use xlink:href="#DejaVuSans-20" transform="translate(668.304688 0)"/>
      <use xlink:href="#DejaVuSans-52" transform="translate(700.091797 0)"/>
      <use xlink:href="#DejaVuSans-61" transform="translate(767.324219 0)"/>
      <use xlink:href="#DejaVuSans-74" transform="translate(828.603516 0)"/>
      <use xlink:href="#DejaVuSans-65" transform="translate(867.8125 0)"/>
     </g>
    </g>
   </g>
   <g id="matplotlib.axis_2">
    <g id="ytick_1">
     <g id="line2d_7">
      <defs>
       <path id="m1896ab9b2c" d="M 0 0 
L -3.5 0 
" style="stroke: #000000; stroke-width: 0.8"/>
      </defs>
      <g>
       <use xlink:href="#m1896ab9b2c" x="47.81" y="332.44" style="stroke: #000000; stroke-width: 0.8"/>
      </g>
     </g>
     <g id="text_8">
      <!-- 0.0 -->
      <g transform="translate(24.906875 336.239219) scale(0.1 -0.1)">
       <use xlink:href="#DejaVuSans-30"/>
       <use xlink:href="#DejaVuSans-2e" transform="translate(63.623047 0)"/>
       <use xlink:href="#DejaVuSans-30" transform="translate(95.410156 0)"/>
      </g>
     </g>
    </g>
    <g id="ytick_2">
     <g id="line2d_8">
      <g>
       <use xlink:href="#m1896ab9b2c" x="47.81" y="280.29098" style="stroke: #000000; stroke-width: 0.8"/>
      </g>
     </g>
     <g id="text_9">
      <!-- 0.2 -->
      <g transform="translate(24.906875 284.090199) scale(0.1 -0.1)">
       <use xlink:href="#DejaVuSans-30"/>
       <use xlink:href="#DejaVuSans-2e" transform="translate(63.623047 0)"/>
       <use xlink:href="#DejaVuSans-32" transform="translate(95.410156 0)"/>
      </g>
     </g>
    </g>
    <g id="ytick_3">
     <g id="line2d_9">
      <g>
       <use xlink:href="#m1896ab9b2c" x="47.81" y="228.141961" style="stroke: #000000; stroke-width: 0.8"/>
      </g>
     </g>
     <g id="text_10">
      <!-- 0.4 -->
      <g transform="translate(24.906875 231.94118) scale(0.1 -0.1)">
       <use xlink:href="#DejaVuSans-30"/>
       <use xlink:href="#DejaVuSans-2e" transform="translate(63.623047 0)"/>
       <use xlink:href="#DejaVuSans-34" transform="translate(95.410156 0)"/>
      </g>
     </g>
    </g>
    <g id="ytick_4">
     <g id="line2d_10">
      <g>
       <use xlink:href="#m1896ab9b2c" x="47.81" y="175.992941" style="stroke: #000000; stroke-width: 0.8"/>
      </g>
     </g>
     <g id="text_11">
      <!-- 0.6 -->
      <g transform="translate(24.906875 179.79216) scale(0.1 -0.1)">
       <use xlink:href="#DejaVuSans-30"/>
       <use xlink:href="#DejaVuSans-2e" transform="translate(63.623047 0)"/>
       <use xlink:href="#DejaVuSans-36" transform="translate(95.410156 0)"/>
      </g>
     </g>
    </g>
    <g id="ytick_5">
     <g id="line2d_11">
      <g>
       <use xlink:href="#m1896ab9b2c" x="47.81" y="123.843922" style="stroke: #000000; stroke-width: 0.8"/>
      </g>
     </g>
     <g id="text_12">
      <!-- 0.8 -->
      <g transform="translate(24.906875 127.64314) scale(0.1 -0.1)">
       <use xlink:href="#DejaVuSans-30"/>
       <use xlink:href="#DejaVuSans-2e" transform="translate(63.623047 0)"/>
       <use xlink:href="#DejaVuSans-38" transform="translate(95.410156 0)"/>
      </g>
     </g>
    </g>
    <g id="ytick_6">
     <g id="line2d_12">
      <g>
       <use xlink:href="#m1896ab9b2c" x="47.81" y="71.694902" style="stroke: #000000; stroke-width: 0.8"/>
      </g>
     </g>
     <g id="text_13">
      <!-- 1.0 -->
      <g transform="translate(24.906875 75.494121) scale(0.1 -0.1)">
       <use xlink:href="#DejaVuSans-31"/>
       <use xlink:href="#DejaVuSans-2e" transform="translate(63.623047 0)"/>
       <use xlink:href="#DejaVuSans-30" transform="translate(95.410156 0)"/>
      </g>
     </g>
    </g>
    <g id="text_14">
     <!-- True Positive Rate -->
     <g transform="translate(18.827187 243.989688) rotate(-90) scale(0.1 -0.1)">
      <defs>
       <path id="DejaVuSans-54" d="M -19 4666 
L 3928 4666 
L 3928 4134 
L 2272 4134 
L 2272 0 
L 1638 0 
L 1638 4134 
L -19 4134 
L -19 4666 
z
" transform="scale(0.015625)"/>
       <path id="DejaVuSans-72" d="M 2631 2963 
Q 2534 3019 2420 3045 
Q 2306 3072 2169 3072 
Q 1681 3072 1420 2755 
Q 1159 2438 1159 1844 
L 1159 0 
L 581 0 
L 581 3500 
L 1159 3500 
L 1159 2956 
Q 1341 3275 1631 3429 
Q 1922 3584 2338 3584 
Q 2397 3584 2469 3576 
Q 2541 3569 2628 3553 
L 2631 2963 
z
" transform="scale(0.015625)"/>
       <path id="DejaVuSans-75" d="M 544 1381 
L 544 3500 
L 1119 3500 
L 1119 1403 
Q 1119 906 1312 657 
Q 1506 409 1894 409 
Q 2359 409 2629 706 
Q 2900 1003 2900 1516 
L 2900 3500 
L 3475 3500 
L 3475 0 
L 2900 0 
L 2900 538 
Q 2691 219 2414 64 
Q 2138 -91 1772 -91 
Q 1169 -91 856 284 
Q 544 659 544 1381 
z
M 1991 3584 
L 1991 3584 
z
" transform="scale(0.015625)"/>
      </defs>
      <use xlink:href="#DejaVuSans-54"/>
      <use xlink:href="#DejaVuSans-72" transform="translate(46.333984 0)"/>
      <use xlink:href="#DejaVuSans-75" transform="translate(87.447266 0)"/>
      <use xlink:href="#DejaVuSans-65" transform="translate(150.826172 0)"/>
      <use xlink:href="#DejaVuSans-20" transform="translate(212.349609 0)"/>
      <use xlink:href="#DejaVuSans-50" transform="translate(244.136719 0)"/>
      <use xlink:href="#DejaVuSans-6f" transform="translate(300.814453 0)"/>
      <use xlink:href="#DejaVuSans-73" transform="translate(361.996094 0)"/>
      <use xlink:href="#DejaVuSans-69" transform="translate(414.095703 0)"/>
      <use xlink:href="#DejaVuSans-74" transform="translate(441.878906 0)"/>
      <use xlink:href="#DejaVuSans-69" transform="translate(481.087891 0)"/>
      <use xlink:href="#DejaVuSans-76" transform="translate(508.871094 0)"/>
      <use xlink:href="#DejaVuSans-65" transform="translate(568.050781 0)"/>
      <use xlink:href="#DejaVuSans-20" transform="translate(629.574219 0)"/>
      <use xlink:href="#DejaVuSans-52" transform="translate(661.361328 0)"/>
      <use xlink:href="#DejaVuSans-61" transform="translate(728.59375 0)"/>
      <use xlink:href="#DejaVuSans-74" transform="translate(789.873047 0)"/>
      <use xlink:href="#DejaVuSans-65" transform="translate(829.082031 0)"/>
     </g>
    </g>
   </g>
   <g id="line2d_13">
    <path d="M 47.81 326.175854 
L 47.81 207.15707 
L 47.81 332.44 
L 50.451098 203.241978 
L 53.092197 178.185392 
L 53.092197 197.76085 
L 55.733295 162.525026 
L 55.733295 159.392953 
L 55.733295 172.704264 
L 58.374394 151.56277 
L 58.374394 155.477861 
L 58.374394 138.251459 
L 58.374394 153.128806 
L 61.015492 131.987312 
L 61.015492 133.553349 
L 61.015492 104.581671 
L 61.015492 110.062799 
L 63.656591 100.66658 
L 63.656591 98.317525 
L 63.656591 103.798653 
L 68.938788 97.534506 
L 68.938788 97.534506 
L 71.579886 96.751488 
L 71.579886 97.534506 
L 71.579886 97.534506 
L 74.220985 95.96847 
L 74.220985 95.96847 
L 74.220985 94.402433 
L 74.220985 96.751488 
L 74.220985 95.185451 
L 76.862083 92.053378 
L 76.862083 92.053378 
L 79.503182 91.27036 
L 79.503182 92.053378 
L 82.14428 90.487341 
L 82.14428 90.487341 
L 82.14428 91.27036 
L 82.14428 90.487341 
L 84.785379 90.487341 
L 87.426477 89.704323 
L 87.426477 88.921305 
L 87.426477 88.921305 
L 90.067576 88.921305 
L 95.349773 87.355268 
L 95.349773 87.355268 
L 103.273068 87.355268 
L 103.273068 87.355268 
L 108.555265 85.789232 
L 108.555265 86.57225 
L 111.196364 85.006213 
L 111.196364 85.006213 
L 116.478561 83.440177 
L 119.119659 81.87414 
L 119.119659 81.87414 
L 119.119659 83.440177 
L 119.119659 83.440177 
L 121.760758 81.87414 
L 121.760758 81.87414 
L 121.760758 81.091122 
L 148.171742 81.091122 
L 150.812841 80.308103 
L 150.812841 81.091122 
L 150.812841 80.308103 
L 153.453939 80.308103 
L 153.453939 79.525085 
L 174.582727 79.525085 
L 174.582727 78.742067 
L 179.864924 77.959048 
L 182.506023 77.959048 
L 182.506023 77.959048 
L 190.429318 77.17603 
L 206.275909 77.17603 
L 208.917008 76.393012 
L 243.251288 76.393012 
L 243.251288 76.393012 
L 256.45678 74.826975 
L 259.097879 74.826975 
L 280.226667 73.260939 
L 296.073258 71.694902 
L 396.435 71.694902 
L 396.435 71.694902 
" clip-path="url(#p9cf982b1e5)" style="fill: none; stroke: #cc78bc; stroke-width: 1.8; stroke-linecap: square"/>
   </g>
   <g id="line2d_14">
    <path d="M 47.81 332.44 
L 47.81 197.35519 
L 47.81 319.873971 
L 56.749103 153.374089 
L 56.749103 165.940118 
L 65.688205 125.100524 
L 65.688205 137.666553 
L 65.688205 125.100524 
L 83.56641 112.534496 
L 83.56641 99.968467 
L 83.56641 118.81751 
L 83.56641 99.968467 
L 92.505513 99.968467 
L 92.505513 96.82696 
L 92.505513 96.82696 
L 101.444615 93.685452 
L 101.444615 93.685452 
L 101.444615 87.402438 
L 101.444615 96.82696 
L 101.444615 90.543945 
L 110.383718 84.260931 
L 110.383718 81.119424 
L 110.383718 87.402438 
L 110.383718 84.260931 
L 119.322821 77.977916 
L 119.322821 77.977916 
L 119.322821 81.119424 
L 119.322821 77.977916 
L 146.140128 77.977916 
L 146.140128 77.977916 
L 164.018333 74.836409 
L 172.957436 71.694902 
L 396.435 71.694902 
L 396.435 71.694902 
" clip-path="url(#p9cf982b1e5)" style="fill: none; stroke-dasharray: 4.44,1.92; stroke-dashoffset: 0; stroke: #000000; stroke-opacity: 0.7; stroke-width: 1.2"/>
   </g>
   <g id="line2d_15">
    <path d="M 47.81 332.44 
L 396.435 71.694902 
" clip-path="url(#p9cf982b1e5)" style="fill: none; stroke-dasharray: 1,1.65; stroke-dashoffset: 0; stroke: #808080"/>
   </g>
   <g id="patch_3">
    <path d="M 47.81 332.44 
L 47.81 66.48 
" style="fill: none; stroke: #000000; stroke-width: 1.2; stroke-linejoin: miter; stroke-linecap: square"/>
   </g>
   <g id="patch_4">
    <path d="M 47.81 332.44 
L 396.435 332.44 
" style="fill: none; stroke: #000000; stroke-width: 1.2; stroke-linejoin: miter; stroke-linecap: square"/>
   </g>
   <g id="text_15">
    <!-- ROC &amp; Youden's J -->
    <g transform="translate(170.449375 60.48) scale(0.12 -0.12)">
     <defs>
      <path id="DejaVuSans-4f" d="M 2522 4238 
Q 1834 4238 1429 3725 
Q 1025 3213 1025 2328 
Q 1025 1447 1429 934 
Q 1834 422 2522 422 
Q 3209 422 3611 934 
Q 4013 1447 4013 2328 
Q 4013 3213 3611 3725 
Q 3209 4238 2522 4238 
z
M 2522 4750 
Q 3503 4750 4090 4092 
Q 4678 3434 4678 2328 
Q 4678 1225 4090 567 
Q 3503 -91 2522 -91 
Q 1538 -91 948 565 
Q 359 1222 359 2328 
Q 359 3434 948 4092 
Q 1538 4750 2522 4750 
z
" transform="scale(0.015625)"/>
      <path id="DejaVuSans-43" d="M 4122 4306 
L 4122 3641 
Q 3803 3938 3442 4084 
Q 3081 4231 2675 4231 
Q 1875 4231 1450 3742 
Q 1025 3253 1025 2328 
Q 1025 1406 1450 917 
Q 1875 428 2675 428 
Q 3081 428 3442 575 
Q 3803 722 4122 1019 
L 4122 359 
Q 3791 134 3420 21 
Q 3050 -91 2638 -91 
Q 1578 -91 968 557 
Q 359 1206 359 2328 
Q 359 3453 968 4101 
Q 1578 4750 2638 4750 
Q 3056 4750 3426 4639 
Q 3797 4528 4122 4306 
z
" transform="scale(0.015625)"/>
      <path id="DejaVuSans-26" d="M 1556 2509 
Q 1272 2256 1139 2004 
Q 1006 1753 1006 1478 
Q 1006 1022 1337 719 
Q 1669 416 2169 416 
Q 2466 416 2725 514 
Q 2984 613 3213 813 
L 1556 2509 
z
M 1997 2859 
L 3584 1234 
Q 3769 1513 3872 1830 
Q 3975 2147 3994 2503 
L 4575 2503 
Q 4538 2091 4375 1687 
Q 4213 1284 3922 891 
L 4794 0 
L 4006 0 
L 3559 459 
Q 3234 181 2878 45 
Q 2522 -91 2113 -91 
Q 1359 -91 881 339 
Q 403 769 403 1441 
Q 403 1841 612 2192 
Q 822 2544 1241 2853 
Q 1091 3050 1012 3245 
Q 934 3441 934 3628 
Q 934 4134 1281 4442 
Q 1628 4750 2203 4750 
Q 2463 4750 2720 4694 
Q 2978 4638 3244 4525 
L 3244 3956 
Q 2972 4103 2725 4179 
Q 2478 4256 2266 4256 
Q 1938 4256 1733 4082 
Q 1528 3909 1528 3634 
Q 1528 3475 1620 3314 
Q 1713 3153 1997 2859 
z
" transform="scale(0.015625)"/>
      <path id="DejaVuSans-59" d="M -13 4666 
L 666 4666 
L 1959 2747 
L 3244 4666 
L 3922 4666 
L 2272 2222 
L 2272 0 
L 1638 0 
L 1638 2222 
L -13 4666 
z
" transform="scale(0.015625)"/>
      <path id="DejaVuSans-64" d="M 2906 2969 
L 2906 4863 
L 3481 4863 
L 3481 0 
L 2906 0 
L 2906 525 
Q 2725 213 2448 61 
Q 2172 -91 1784 -91 
Q 1150 -91 751 415 
Q 353 922 353 1747 
Q 353 2572 751 3078 
Q 1150 3584 1784 3584 
Q 2172 3584 2448 3432 
Q 2725 3281 2906 2969 
z
M 947 1747 
Q 947 1113 1208 752 
Q 1469 391 1925 391 
Q 2381 391 2643 752 
Q 2906 1113 2906 1747 
Q 2906 2381 2643 2742 
Q 2381 3103 1925 3103 
Q 1469 3103 1208 2742 
Q 947 2381 947 1747 
z
" transform="scale(0.015625)"/>
      <path id="DejaVuSans-6e" d="M 3513 2113 
L 3513 0 
L 2938 0 
L 2938 2094 
Q 2938 2591 2744 2837 
Q 2550 3084 2163 3084 
Q 1697 3084 1428 2787 
Q 1159 2491 1159 1978 
L 1159 0 
L 581 0 
L 581 3500 
L 1159 3500 
L 1159 2956 
Q 1366 3272 1645 3428 
Q 1925 3584 2291 3584 
Q 2894 3584 3203 3211 
Q 3513 2838 3513 2113 
z
" transform="scale(0.015625)"/>
      <path id="DejaVuSans-27" d="M 1147 4666 
L 1147 2931 
L 616 2931 
L 616 4666 
L 1147 4666 
z
" transform="scale(0.015625)"/>
      <path id="DejaVuSans-4a" d="M 628 4666 
L 1259 4666 
L 1259 325 
Q 1259 -519 939 -900 
Q 619 -1281 -91 -1281 
L -331 -1281 
L -331 -750 
L -134 -750 
Q 284 -750 456 -515 
Q 628 -281 628 325 
L 628 4666 
z
" transform="scale(0.015625)"/>
     </defs>
     <use xlink:href="#DejaVuSans-52"/>
     <use xlink:href="#DejaVuSans-4f" transform="translate(69.482422 0)"/>
     <use xlink:href="#DejaVuSans-43" transform="translate(148.193359 0)"/>
     <use xlink:href="#DejaVuSans-20" transform="translate(218.017578 0)"/>
     <use xlink:href="#DejaVuSans-26" transform="translate(249.804688 0)"/>
     <use xlink:href="#DejaVuSans-20" transform="translate(327.783203 0)"/>
     <use xlink:href="#DejaVuSans-59" transform="translate(359.570312 0)"/>
     <use xlink:href="#DejaVuSans-6f" transform="translate(407.404297 0)"/>
     <use xlink:href="#DejaVuSans-75" transform="translate(468.585938 0)"/>
     <use xlink:href="#DejaVuSans-64" transform="translate(531.964844 0)"/>
     <use xlink:href="#DejaVuSans-65" transform="translate(595.441406 0)"/>
     <use xlink:href="#DejaVuSans-6e" transform="translate(656.964844 0)"/>
     <use xlink:href="#DejaVuSans-27" transform="translate(720.34375 0)"/>
     <use xlink:href="#DejaVuSans-73" transform="translate(747.833984 0)"/>
     <use xlink:href="#DejaVuSans-20" transform="translate(799.933594 0)"/>
     <use xlink:href="#DejaVuSans-4a" transform="translate(831.720703 0)"/>
    </g>
   </g>
   <g id="PathCollection_1">
    <defs>
     <path id="m405ce360ea" d="M 0 2.915476 
C 0.773193 2.915476 1.514823 2.608283 2.061553 2.061553 
C 2.608283 1.514823 2.915476 0.773193 2.915476 0 
C 2.915476 -0.773193 2.608283 -1.514823 2.061553 -2.061553 
C 1.514823 -2.608283 0.773193 -2.915476 0 -2.915476 
C -0.773193 -2.915476 -1.514823 -2.608283 -2.061553 -2.061553 
C -2.608283 -1.514823 -2.915476 -0.773193 -2.915476 0 
C -2.915476 0.773193 -2.608283 1.514823 -2.061553 2.061553 
C -1.514823 2.608283 -0.773193 2.915476 0 2.915476 
z
" style="stroke: #dc143c"/>
    </defs>
    <g clip-path="url(#p9cf982b1e5)">
     <use xlink:href="#m405ce360ea" x="63.656591" y="98.317525" style="fill: #dc143c; stroke: #dc143c"/>
    </g>
   </g>
   <g id="legend_1">
    <g id="line2d_16">
     <path d="M 288.6325 297.29125 
L 296.6325 297.29125 
L 304.6325 297.29125 
" style="fill: none; stroke: #cc78bc; stroke-width: 1.8; stroke-linecap: square"/>
    </g>
    <g id="text_16">
     <!-- OOF ROC -->
     <g transform="translate(311.0325 300.09125) scale(0.08 -0.08)">
      <use xlink:href="#DejaVuSans-4f"/>
      <use xlink:href="#DejaVuSans-4f" transform="translate(78.710938 0)"/>
      <use xlink:href="#DejaVuSans-46" transform="translate(157.421875 0)"/>
      <use xlink:href="#DejaVuSans-20" transform="translate(214.941406 0)"/>
      <use xlink:href="#DejaVuSans-52" transform="translate(246.728516 0)"/>
      <use xlink:href="#DejaVuSans-4f" transform="translate(316.210938 0)"/>
      <use xlink:href="#DejaVuSans-43" transform="translate(394.921875 0)"/>
     </g>
    </g>
    <g id="line2d_17">
     <path d="M 288.6325 309.03375 
L 296.6325 309.03375 
L 304.6325 309.03375 
" style="fill: none; stroke-dasharray: 4.44,1.92; stroke-dashoffset: 0; stroke: #000000; stroke-opacity: 0.7; stroke-width: 1.2"/>
    </g>
    <g id="text_17">
     <!-- External ROC -->
     <g transform="translate(311.0325 311.83375) scale(0.08 -0.08)">
      <defs>
       <path id="DejaVuSans-45" d="M 628 4666 
L 3578 4666 
L 3578 4134 
L 1259 4134 
L 1259 2753 
L 3481 2753 
L 3481 2222 
L 1259 2222 
L 1259 531 
L 3634 531 
L 3634 0 
L 628 0 
L 628 4666 
z
" transform="scale(0.015625)"/>
       <path id="DejaVuSans-78" d="M 3513 3500 
L 2247 1797 
L 3578 0 
L 2900 0 
L 1881 1375 
L 863 0 
L 184 0 
L 1544 1831 
L 300 3500 
L 978 3500 
L 1906 2253 
L 2834 3500 
L 3513 3500 
z
" transform="scale(0.015625)"/>
      </defs>
      <use xlink:href="#DejaVuSans-45"/>
      <use xlink:href="#DejaVuSans-78" transform="translate(63.183594 0)"/>
      <use xlink:href="#DejaVuSans-74" transform="translate(122.363281 0)"/>
      <use xlink:href="#DejaVuSans-65" transform="translate(161.572266 0)"/>
      <use xlink:href="#DejaVuSans-72" transform="translate(223.095703 0)"/>
      <use xlink:href="#DejaVuSans-6e" transform="translate(262.458984 0)"/>
      <use xlink:href="#DejaVuSans-61" transform="translate(325.837891 0)"/>
      <use xlink:href="#DejaVuSans-6c" transform="translate(387.117188 0)"/>
      <use xlink:href="#DejaVuSans-20" transform="translate(414.900391 0)"/>
      <use xlink:href="#DejaVuSans-52" transform="translate(446.6875 0)"/>
      <use xlink:href="#DejaVuSans-4f" transform="translate(516.169922 0)"/>
      <use xlink:href="#DejaVuSans-43" transform="translate(594.880859 0)"/>
     </g>
    </g>
    <g id="PathCollection_2">
     <g>
      <use xlink:href="#m405ce360ea" x="296.6325" y="321.47625" style="fill: #dc143c; stroke: #dc143c"/>
     </g>
    </g>
    <g id="text_18">
     <!-- Youden-J thr=0.685 -->
     <g transform="translate(311.0325 323.57625) scale(0.08 -0.08)">
      <defs>
       <path id="DejaVuSans-2d" d="M 313 2009 
L 1997 2009 
L 1997 1497 
L 313 1497 
L 313 2009 
z
" transform="scale(0.015625)"/>
       <path id="DejaVuSans-68" d="M 3513 2113 
L 3513 0 
L 2938 0 
L 2938 2094 
Q 2938 2591 2744 2837 
Q 2550 3084 2163 3084 
Q 1697 3084 1428 2787 
Q 1159 2491 1159 1978 
L 1159 0 
L 581 0 
L 581 4863 
L 1159 4863 
L 1159 2956 
Q 1366 3272 1645 3428 
Q 1925 3584 2291 3584 
Q 2894 3584 3203 3211 
Q 3513 2838 3513 2113 
z
" transform="scale(0.015625)"/>
       <path id="DejaVuSans-3d" d="M 678 2906 
L 4684 2906 
L 4684 2381 
L 678 2381 
L 678 2906 
z
M 678 1631 
L 4684 1631 
L 4684 1100 
L 678 1100 
L 678 1631 
z
" transform="scale(0.015625)"/>
       <path id="DejaVuSans-35" d="M 691 4666 
L 3169 4666 
L 3169 4134 
L 1269 4134 
L 1269 2991 
Q 1406 3038 1543 3061 
Q 1681 3084 1819 3084 
Q 2600 3084 3056 2656 
Q 3513 2228 3513 1497 
Q 3513 744 3044 326 
Q 2575 -91 1722 -91 
Q 1428 -91 1123 -41 
Q 819 9 494 109 
L 494 744 
Q 775 591 1075 516 
Q 1375 441 1709 441 
Q 2250 441 2565 725 
Q 2881 1009 2881 1497 
Q 2881 1984 2565 2268 
Q 2250 2553 1709 2553 
Q 1456 2553 1204 2497 
Q 953 2441 691 2322 
L 691 4666 
z
" transform="scale(0.015625)"/>
      </defs>
      <use xlink:href="#DejaVuSans-59"/>
      <use xlink:href="#DejaVuSans-6f" transform="translate(47.833984 0)"/>
      <use xlink:href="#DejaVuSans-75" transform="translate(109.015625 0)"/>
      <use xlink:href="#DejaVuSans-64" transform="translate(172.394531 0)"/>
      <use xlink:href="#DejaVuSans-65" transform="translate(235.871094 0)"/>
      <use xlink:href="#DejaVuSans-6e" transform="translate(297.394531 0)"/>
      <use xlink:href="#DejaVuSans-2d" transform="translate(360.773438 0)"/>
      <use xlink:href="#DejaVuSans-4a" transform="translate(402.482422 0)"/>
      <use xlink:href="#DejaVuSans-20" transform="translate(431.974609 0)"/>
      <use xlink:href="#DejaVuSans-74" transform="translate(463.761719 0)"/>
      <use xlink:href="#DejaVuSans-68" transform="translate(502.970703 0)"/>
      <use xlink:href="#DejaVuSans-72" transform="translate(566.349609 0)"/>
      <use xlink:href="#DejaVuSans-3d" transform="translate(607.462891 0)"/>
      <use xlink:href="#DejaVuSans-30" transform="translate(691.251953 0)"/>
      <use xlink:href="#DejaVuSans-2e" transform="translate(754.875 0)"/>
      <use xlink:href="#DejaVuSans-36" transform="translate(786.662109 0)"/>
      <use xlink:href="#DejaVuSans-38" transform="translate(850.285156 0)"/>
      <use xlink:href="#DejaVuSans-35" transform="translate(913.908203 0)"/>
     </g>
    </g>
   </g>
  </g>
  <g id="axes_2">
   <g id="patch_5">
    <path d="M 452.21 332.44 
L 800.835 332.44 
L 800.835 66.48 
L 452.21 66.48 
z
" style="fill: #ffffff"/>
   </g>
   <g id="matplotlib.axis_3">
    <g id="xtick_7">
     <g id="line2d_18">
      <g>
       <use xlink:href="#m5d88a81607" x="452.21" y="332.44" style="stroke: #000000; stroke-width: 0.8"/>
      </g>
     </g>
     <g id="text_19">
      <!-- 0.0 -->
      <g transform="translate(444.258438 347.038437) scale(0.1 -0.1)">
       <use xlink:href="#DejaVuSans-30"/>
       <use xlink:href="#DejaVuSans-2e" transform="translate(63.623047 0)"/>
       <use xlink:href="#DejaVuSans-30" transform="translate(95.410156 0)"/>
      </g>
     </g>
    </g>
    <g id="xtick_8">
     <g id="line2d_19">
      <g>
       <use xlink:href="#m5d88a81607" x="521.935" y="332.44" style="stroke: #000000; stroke-width: 0.8"/>
      </g>
     </g>
     <g id="text_20">
      <!-- 0.2 -->
      <g transform="translate(513.983438 347.038437) scale(0.1 -0.1)">
       <use xlink:href="#DejaVuSans-30"/>
       <use xlink:href="#DejaVuSans-2e" transform="translate(63.623047 0)"/>
       <use xlink:href="#DejaVuSans-32" transform="translate(95.410156 0)"/>
      </g>
     </g>
    </g>
    <g id="xtick_9">
     <g id="line2d_20">
      <g>
       <use xlink:href="#m5d88a81607" x="591.66" y="332.44" style="stroke: #000000; stroke-width: 0.8"/>
      </g>
     </g>
     <g id="text_21">
      <!-- 0.4 -->
      <g transform="translate(583.708438 347.038437) scale(0.1 -0.1)">
       <use xlink:href="#DejaVuSans-30"/>
       <use xlink:href="#DejaVuSans-2e" transform="translate(63.623047 0)"/>
       <use xlink:href="#DejaVuSans-34" transform="translate(95.410156 0)"/>
      </g>
     </g>
    </g>
    <g id="xtick_10">
     <g id="line2d_21">
      <g>
       <use xlink:href="#m5d88a81607" x="661.385" y="332.44" style="stroke: #000000; stroke-width: 0.8"/>
      </g>
     </g>
     <g id="text_22">
      <!-- 0.6 -->
      <g transform="translate(653.433438 347.038437) scale(0.1 -0.1)">
       <use xlink:href="#DejaVuSans-30"/>
       <use xlink:href="#DejaVuSans-2e" transform="translate(63.623047 0)"/>
       <use xlink:href="#DejaVuSans-36" transform="translate(95.410156 0)"/>
      </g>
     </g>
    </g>
    <g id="xtick_11">
     <g id="line2d_22">
      <g>
       <use xlink:href="#m5d88a81607" x="731.11" y="332.44" style="stroke: #000000; stroke-width: 0.8"/>
      </g>
     </g>
     <g id="text_23">
      <!-- 0.8 -->
      <g transform="translate(723.158438 347.038437) scale(0.1 -0.1)">
       <use xlink:href="#DejaVuSans-30"/>
       <use xlink:href="#DejaVuSans-2e" transform="translate(63.623047 0)"/>
       <use xlink:href="#DejaVuSans-38" transform="translate(95.410156 0)"/>
      </g>
     </g>
    </g>
    <g id="xtick_12">
     <g id="line2d_23">
      <g>
       <use xlink:href="#m5d88a81607" x="800.835" y="332.44" style="stroke: #000000; stroke-width: 0.8"/>
      </g>
     </g>
     <g id="text_24">
      <!-- 1.0 -->
      <g transform="translate(792.883438 347.038437) scale(0.1 -0.1)">
       <use xlink:href="#DejaVuSans-31"/>
       <use xlink:href="#DejaVuSans-2e" transform="translate(63.623047 0)"/>
       <use xlink:href="#DejaVuSans-30" transform="translate(95.410156 0)"/>
      </g>
     </g>
    </g>
    <g id="text_25">
     <!-- Recall -->
     <g transform="translate(611.605313 360.716563) scale(0.1 -0.1)">
      <defs>
       <path id="DejaVuSans-63" d="M 3122 3366 
L 3122 2828 
Q 2878 2963 2633 3030 
Q 2388 3097 2138 3097 
Q 1578 3097 1268 2742 
Q 959 2388 959 1747 
Q 959 1106 1268 751 
Q 1578 397 2138 397 
Q 2388 397 2633 464 
Q 2878 531 3122 666 
L 3122 134 
Q 2881 22 2623 -34 
Q 2366 -91 2075 -91 
Q 1284 -91 818 406 
Q 353 903 353 1747 
Q 353 2603 823 3093 
Q 1294 3584 2113 3584 
Q 2378 3584 2631 3529 
Q 2884 3475 3122 3366 
z
" transform="scale(0.015625)"/>
      </defs>
      <use xlink:href="#DejaVuSans-52"/>
      <use xlink:href="#DejaVuSans-65" transform="translate(64.982422 0)"/>
      <use xlink:href="#DejaVuSans-63" transform="translate(126.505859 0)"/>
      <use xlink:href="#DejaVuSans-61" transform="translate(181.486328 0)"/>
      <use xlink:href="#DejaVuSans-6c" transform="translate(242.765625 0)"/>
      <use xlink:href="#DejaVuSans-6c" transform="translate(270.548828 0)"/>
     </g>
    </g>
   </g>
   <g id="matplotlib.axis_4">
    <g id="ytick_7">
     <g id="line2d_24">
      <g>
       <use xlink:href="#m1896ab9b2c" x="452.21" y="332.44" style="stroke: #000000; stroke-width: 0.8"/>
      </g>
     </g>
     <g id="text_26">
      <!-- 0.0 -->
      <g transform="translate(429.306875 336.239219) scale(0.1 -0.1)">
       <use xlink:href="#DejaVuSans-30"/>
       <use xlink:href="#DejaVuSans-2e" transform="translate(63.623047 0)"/>
       <use xlink:href="#DejaVuSans-30" transform="translate(95.410156 0)"/>
      </g>
     </g>
    </g>
    <g id="ytick_8">
     <g id="line2d_25">
      <g>
       <use xlink:href="#m1896ab9b2c" x="452.21" y="280.29098" style="stroke: #000000; stroke-width: 0.8"/>
      </g>
     </g>
     <g id="text_27">
      <!-- 0.2 -->
      <g transform="translate(429.306875 284.090199) scale(0.1 -0.1)">
       <use xlink:href="#DejaVuSans-30"/>
       <use xlink:href="#DejaVuSans-2e" transform="translate(63.623047 0)"/>
       <use xlink:href="#DejaVuSans-32" transform="translate(95.410156 0)"/>
      </g>
     </g>
    </g>
    <g id="ytick_9">
     <g id="line2d_26">
      <g>
       <use xlink:href="#m1896ab9b2c" x="452.21" y="228.141961" style="stroke: #000000; stroke-width: 0.8"/>
      </g>
     </g>
     <g id="text_28">
      <!-- 0.4 -->
      <g transform="translate(429.306875 231.94118) scale(0.1 -0.1)">
       <use xlink:href="#DejaVuSans-30"/>
       <use xlink:href="#DejaVuSans-2e" transform="translate(63.623047 0)"/>
       <use xlink:href="#DejaVuSans-34" transform="translate(95.410156 0)"/>
      </g>
     </g>
    </g>
    <g id="ytick_10">
     <g id="line2d_27">
      <g>
       <use xlink:href="#m1896ab9b2c" x="452.21" y="175.992941" style="stroke: #000000; stroke-width: 0.8"/>
      </g>
     </g>
     <g id="text_29">
      <!-- 0.6 -->
      <g transform="translate(429.306875 179.79216) scale(0.1 -0.1)">
       <use xlink:href="#DejaVuSans-30"/>
       <use xlink:href="#DejaVuSans-2e" transform="translate(63.623047 0)"/>
       <use xlink:href="#DejaVuSans-36" transform="translate(95.410156 0)"/>
      </g>
     </g>
    </g>
    <g id="ytick_11">
     <g id="line2d_28">
      <g>
       <use xlink:href="#m1896ab9b2c" x="452.21" y="123.843922" style="stroke: #000000; stroke-width: 0.8"/>
      </g>
     </g>
     <g id="text_30">
      <!-- 0.8 -->
      <g transform="translate(429.306875 127.64314) scale(0.1 -0.1)">
       <use xlink:href="#DejaVuSans-30"/>
       <use xlink:href="#DejaVuSans-2e" transform="translate(63.623047 0)"/>
       <use xlink:href="#DejaVuSans-38" transform="translate(95.410156 0)"/>
      </g>
     </g>
    </g>
    <g id="ytick_12">
     <g id="line2d_29">
      <g>
       <use xlink:href="#m1896ab9b2c" x="452.21" y="71.694902" style="stroke: #000000; stroke-width: 0.8"/>
      </g>
     </g>
     <g id="text_31">
      <!-- 1.0 -->
      <g transform="translate(429.306875 75.494121) scale(0.1 -0.1)">
       <use xlink:href="#DejaVuSans-31"/>
       <use xlink:href="#DejaVuSans-2e" transform="translate(63.623047 0)"/>
       <use xlink:href="#DejaVuSans-30" transform="translate(95.410156 0)"/>
      </g>
     </g>
    </g>
    <g id="text_32">
     <!-- Precision -->
     <g transform="translate(423.227188 221.767031) rotate(-90) scale(0.1 -0.1)">
      <use xlink:href="#DejaVuSans-50"/>
      <use xlink:href="#DejaVuSans-72" transform="translate(58.552734 0)"/>
      <use xlink:href="#DejaVuSans-65" transform="translate(97.416016 0)"/>
      <use xlink:href="#DejaVuSans-63" transform="translate(158.939453 0)"/>
      <use xlink:href="#DejaVuSans-69" transform="translate(213.919922 0)"/>
      <use xlink:href="#DejaVuSans-73" transform="translate(241.703125 0)"/>
      <use xlink:href="#DejaVuSans-69" transform="translate(293.802734 0)"/>
      <use xlink:href="#DejaVuSans-6f" transform="translate(321.585938 0)"/>
      <use xlink:href="#DejaVuSans-6e" transform="translate(382.767578 0)"/>
     </g>
    </g>
   </g>
   <g id="line2d_30">
    <path d="M 452.21 332.44 
L 460.585375 71.694902 
L 619.717508 71.694902 
L 624.952117 73.265656 
L 632.280571 74.691972 
L 658.453619 74.315456 
L 665.782072 75.473816 
L 683.579745 75.187024 
L 688.814354 76.229599 
L 711.846637 75.833713 
L 718.128168 76.728591 
L 718.128168 76.728591 
L 756.864279 76.09938 
L 757.911201 76.944803 
L 765.239655 76.824314 
L 765.239655 76.824314 
L 766.286577 78.467502 
L 766.286577 78.467502 
L 766.286577 79.289419 
L 766.286577 78.467502 
L 767.333498 80.078989 
L 767.333498 79.264921 
L 767.333498 79.264921 
L 768.38042 80.052117 
L 768.38042 80.052117 
L 770.474264 79.998886 
L 773.61503 80.714386 
L 773.61503 81.503495 
L 773.61503 80.714386 
L 774.661952 82.254672 
L 774.661952 82.254672 
L 774.661952 81.472843 
L 775.708874 82.221878 
L 775.708874 82.221878 
L 775.708874 82.996547 
L 777.802718 84.453072 
L 777.802718 83.692376 
L 777.802718 83.692376 
L 779.896562 85.874394 
L 779.896562 85.874394 
L 779.896562 88.089055 
L 779.896562 85.874394 
L 780.943483 88.767498 
L 780.943483 88.767498 
L 780.943483 89.490561 
L 780.943483 88.767498 
L 783.037327 90.100438 
L 783.037327 90.100438 
L 785.131171 92.10104 
L 785.131171 92.10104 
L 785.131171 91.40238 
L 785.131171 92.10104 
L 787.225015 92.674393 
L 787.225015 91.983425 
L 787.225015 92.674393 
L 788.271937 93.299496 
L 788.271937 99.942288 
L 788.271937 92.614279 
L 788.271937 98.643418 
L 789.318859 100.506515 
L 789.318859 99.86404 
L 789.318859 99.86404 
L 790.365781 104.199711 
L 790.365781 100.427144 
L 790.365781 105.430117 
L 790.365781 101.698447 
L 791.412703 105.339431 
L 792.459625 106.460915 
L 792.459625 107.061923 
L 792.459625 107.061923 
L 793.506547 111.078276 
L 793.506547 112.225228 
L 793.506547 108.748153 
L 794.553468 119.812451 
L 794.553468 112.688332 
L 796.647312 122.696388 
L 796.647312 122.182311 
L 797.694234 124.599704 
L 798.741156 126.457596 
L 800.835 132.835132 
L 800.835 145.712865 
L 800.835 129.095462 
L 800.835 145.310436 
" clip-path="url(#p60915b4438)" style="fill: none; stroke: #cc78bc; stroke-width: 1.8; stroke-linecap: square"/>
   </g>
   <g id="line2d_31">
    <path d="M 452.21 332.44 
L 469.011205 71.694902 
L 632.822952 71.694902 
L 674.825964 76.523515 
L 691.627169 76.190507 
L 712.628675 79.843186 
L 729.42988 79.363875 
L 729.42988 79.363875 
L 737.830482 86.180741 
L 763.032289 85.066445 
L 763.032289 88.197756 
L 763.032289 85.066445 
L 767.23259 91.009354 
L 767.23259 87.991471 
L 767.23259 91.009354 
L 775.633193 90.543945 
L 775.633193 90.543945 
L 779.833494 93.168028 
L 779.833494 90.319552 
L 779.833494 90.319552 
L 784.033795 92.91834 
L 784.033795 92.91834 
L 788.234096 92.674393 
L 788.234096 92.674393 
L 788.234096 95.399002 
L 788.234096 95.399002 
L 792.434398 102.870946 
L 792.434398 95.132664 
L 792.434398 102.870946 
L 796.634699 107.37581 
L 800.835 116.021569 
L 800.835 155.047843 
L 800.835 109.328215 
L 800.835 150.575772 
" clip-path="url(#p60915b4438)" style="fill: none; stroke-dasharray: 4.44,1.92; stroke-dashoffset: 0; stroke: #000000; stroke-opacity: 0.7; stroke-width: 1.2"/>
   </g>
   <g id="patch_6">
    <path d="M 452.21 332.44 
L 452.21 66.48 
" style="fill: none; stroke: #000000; stroke-width: 1.2; stroke-linejoin: miter; stroke-linecap: square"/>
   </g>
   <g id="patch_7">
    <path d="M 452.21 332.44 
L 800.835 332.44 
" style="fill: none; stroke: #000000; stroke-width: 1.2; stroke-linejoin: miter; stroke-linecap: square"/>
   </g>
   <g id="text_33">
    <!-- PR &amp; Max-F1 -->
    <g transform="translate(588.404688 60.48) scale(0.12 -0.12)">
     <defs>
      <path id="DejaVuSans-4d" d="M 628 4666 
L 1569 4666 
L 2759 1491 
L 3956 4666 
L 4897 4666 
L 4897 0 
L 4281 0 
L 4281 4097 
L 3078 897 
L 2444 897 
L 1241 4097 
L 1241 0 
L 628 0 
L 628 4666 
z
" transform="scale(0.015625)"/>
     </defs>
     <use xlink:href="#DejaVuSans-50"/>
     <use xlink:href="#DejaVuSans-52" transform="translate(60.302734 0)"/>
     <use xlink:href="#DejaVuSans-20" transform="translate(129.785156 0)"/>
     <use xlink:href="#DejaVuSans-26" transform="translate(161.572266 0)"/>
     <use xlink:href="#DejaVuSans-20" transform="translate(239.550781 0)"/>
     <use xlink:href="#DejaVuSans-4d" transform="translate(271.337891 0)"/>
     <use xlink:href="#DejaVuSans-61" transform="translate(357.617188 0)"/>
     <use xlink:href="#DejaVuSans-78" transform="translate(418.896484 0)"/>
     <use xlink:href="#DejaVuSans-2d" transform="translate(478.076172 0)"/>
     <use xlink:href="#DejaVuSans-46" transform="translate(514.160156 0)"/>
     <use xlink:href="#DejaVuSans-31" transform="translate(571.679688 0)"/>
    </g>
   </g>
   <g id="PathCollection_3">
    <g clip-path="url(#p60915b4438)">
     <use xlink:href="#m405ce360ea" x="776.755796" y="83.729291" style="fill: #dc143c; stroke: #dc143c"/>
    </g>
   </g>
   <g id="legend_2">
    <g id="line2d_32">
     <path d="M 459.41 297.29125 
L 467.41 297.29125 
L 475.41 297.29125 
" style="fill: none; stroke: #cc78bc; stroke-width: 1.8; stroke-linecap: square"/>
    </g>
    <g id="text_34">
     <!-- OOF PR -->
     <g transform="translate(481.81 300.09125) scale(0.08 -0.08)">
      <use xlink:href="#DejaVuSans-4f"/>
      <use xlink:href="#DejaVuSans-4f" transform="translate(78.710938 0)"/>
      <use xlink:href="#DejaVuSans-46" transform="translate(157.421875 0)"/>
      <use xlink:href="#DejaVuSans-20" transform="translate(214.941406 0)"/>
      <use xlink:href="#DejaVuSans-50" transform="translate(246.728516 0)"/>
      <use xlink:href="#DejaVuSans-52" transform="translate(307.03125 0)"/>
     </g>
    </g>
    <g id="line2d_33">
     <path d="M 459.41 309.03375 
L 467.41 309.03375 
L 475.41 309.03375 
" style="fill: none; stroke-dasharray: 4.44,1.92; stroke-dashoffset: 0; stroke: #000000; stroke-opacity: 0.7; stroke-width: 1.2"/>
    </g>
    <g id="text_35">
     <!-- External PR -->
     <g transform="translate(481.81 311.83375) scale(0.08 -0.08)">
      <use xlink:href="#DejaVuSans-45"/>
      <use xlink:href="#DejaVuSans-78" transform="translate(63.183594 0)"/>
      <use xlink:href="#DejaVuSans-74" transform="translate(122.363281 0)"/>
      <use xlink:href="#DejaVuSans-65" transform="translate(161.572266 0)"/>
      <use xlink:href="#DejaVuSans-72" transform="translate(223.095703 0)"/>
      <use xlink:href="#DejaVuSans-6e" transform="translate(262.458984 0)"/>
      <use xlink:href="#DejaVuSans-61" transform="translate(325.837891 0)"/>
      <use xlink:href="#DejaVuSans-6c" transform="translate(387.117188 0)"/>
      <use xlink:href="#DejaVuSans-20" transform="translate(414.900391 0)"/>
      <use xlink:href="#DejaVuSans-50" transform="translate(446.6875 0)"/>
      <use xlink:href="#DejaVuSans-52" transform="translate(506.990234 0)"/>
     </g>
    </g>
    <g id="PathCollection_4">
     <g>
      <use xlink:href="#m405ce360ea" x="467.41" y="321.47625" style="fill: #dc143c; stroke: #dc143c"/>
     </g>
    </g>
    <g id="text_36">
     <!-- Max-F1 thr=0.519 -->
     <g transform="translate(481.81 323.57625) scale(0.08 -0.08)">
      <defs>
       <path id="DejaVuSans-39" d="M 703 97 
L 703 672 
Q 941 559 1184 500 
Q 1428 441 1663 441 
Q 2288 441 2617 861 
Q 2947 1281 2994 2138 
Q 2813 1869 2534 1725 
Q 2256 1581 1919 1581 
Q 1219 1581 811 2004 
Q 403 2428 403 3163 
Q 403 3881 828 4315 
Q 1253 4750 1959 4750 
Q 2769 4750 3195 4129 
Q 3622 3509 3622 2328 
Q 3622 1225 3098 567 
Q 2575 -91 1691 -91 
Q 1453 -91 1209 -44 
Q 966 3 703 97 
z
M 1959 2075 
Q 2384 2075 2632 2365 
Q 2881 2656 2881 3163 
Q 2881 3666 2632 3958 
Q 2384 4250 1959 4250 
Q 1534 4250 1286 3958 
Q 1038 3666 1038 3163 
Q 1038 2656 1286 2365 
Q 1534 2075 1959 2075 
z
" transform="scale(0.015625)"/>
      </defs>
      <use xlink:href="#DejaVuSans-4d"/>
      <use xlink:href="#DejaVuSans-61" transform="translate(86.279297 0)"/>
      <use xlink:href="#DejaVuSans-78" transform="translate(147.558594 0)"/>
      <use xlink:href="#DejaVuSans-2d" transform="translate(206.738281 0)"/>
      <use xlink:href="#DejaVuSans-46" transform="translate(242.822266 0)"/>
      <use xlink:href="#DejaVuSans-31" transform="translate(300.341797 0)"/>
      <use xlink:href="#DejaVuSans-20" transform="translate(363.964844 0)"/>
      <use xlink:href="#DejaVuSans-74" transform="translate(395.751953 0)"/>
      <use xlink:href="#DejaVuSans-68" transform="translate(434.960938 0)"/>
      <use xlink:href="#DejaVuSans-72" transform="translate(498.339844 0)"/>
      <use xlink:href="#DejaVuSans-3d" transform="translate(539.453125 0)"/>
      <use xlink:href="#DejaVuSans-30" transform="translate(623.242188 0)"/>
      <use xlink:href="#DejaVuSans-2e" transform="translate(686.865234 0)"/>
      <use xlink:href="#DejaVuSans-35" transform="translate(718.652344 0)"/>
      <use xlink:href="#DejaVuSans-31" transform="translate(782.275391 0)"/>
      <use xlink:href="#DejaVuSans-39" transform="translate(845.898438 0)"/>
     </g>
    </g>
   </g>
  </g>
  <g id="axes_3">
   <g id="patch_8">
    <path d="M 856.61 332.44 
L 1205.235 332.44 
L 1205.235 66.48 
L 856.61 66.48 
z
" style="fill: #ffffff"/>
   </g>
   <g id="matplotlib.axis_5">
    <g id="xtick_13">
     <g id="line2d_34">
      <g>
       <use xlink:href="#m5d88a81607" x="856.61" y="332.44" style="stroke: #000000; stroke-width: 0.8"/>
      </g>
     </g>
     <g id="text_37">
      <!-- 0.0 -->
      <g transform="translate(848.658438 347.038437) scale(0.1 -0.1)">
       <use xlink:href="#DejaVuSans-30"/>
       <use xlink:href="#DejaVuSans-2e" transform="translate(63.623047 0)"/>
       <use xlink:href="#DejaVuSans-30" transform="translate(95.410156 0)"/>
      </g>
     </g>
    </g>
    <g id="xtick_14">
     <g id="line2d_35">
      <g>
       <use xlink:href="#m5d88a81607" x="926.335" y="332.44" style="stroke: #000000; stroke-width: 0.8"/>
      </g>
     </g>
     <g id="text_38">
      <!-- 0.2 -->
      <g transform="translate(918.383438 347.038437) scale(0.1 -0.1)">
       <use xlink:href="#DejaVuSans-30"/>
       <use xlink:href="#DejaVuSans-2e" transform="translate(63.623047 0)"/>
       <use xlink:href="#DejaVuSans-32" transform="translate(95.410156 0)"/>
      </g>
     </g>
    </g>
    <g id="xtick_15">
     <g id="line2d_36">
      <g>
       <use xlink:href="#m5d88a81607" x="996.06" y="332.44" style="stroke: #000000; stroke-width: 0.8"/>
      </g>
     </g>
     <g id="text_39">
      <!-- 0.4 -->
      <g transform="translate(988.108438 347.038437) scale(0.1 -0.1)">
       <use xlink:href="#DejaVuSans-30"/>
       <use xlink:href="#DejaVuSans-2e" transform="translate(63.623047 0)"/>
       <use xlink:href="#DejaVuSans-34" transform="translate(95.410156 0)"/>
      </g>
     </g>
    </g>
    <g id="xtick_16">
     <g id="line2d_37">
      <g>
       <use xlink:href="#m5d88a81607" x="1065.785" y="332.44" style="stroke: #000000; stroke-width: 0.8"/>
      </g>
     </g>
     <g id="text_40">
      <!-- 0.6 -->
      <g transform="translate(1057.833438 347.038437) scale(0.1 -0.1)">
       <use xlink:href="#DejaVuSans-30"/>
       <use xlink:href="#DejaVuSans-2e" transform="translate(63.623047 0)"/>
       <use xlink:href="#DejaVuSans-36" transform="translate(95.410156 0)"/>
      </g>
     </g>
    </g>
    <g id="xtick_17">
     <g id="line2d_38">
      <g>
       <use xlink:href="#m5d88a81607" x="1135.51" y="332.44" style="stroke: #000000; stroke-width: 0.8"/>
      </g>
     </g>
     <g id="text_41">
      <!-- 0.8 -->
      <g transform="translate(1127.558438 347.038437) scale(0.1 -0.1)">
       <use xlink:href="#DejaVuSans-30"/>
       <use xlink:href="#DejaVuSans-2e" transform="translate(63.623047 0)"/>
       <use xlink:href="#DejaVuSans-38" transform="translate(95.410156 0)"/>
      </g>
     </g>
    </g>
    <g id="xtick_18">
     <g id="line2d_39">
      <g>
       <use xlink:href="#m5d88a81607" x="1205.235" y="332.44" style="stroke: #000000; stroke-width: 0.8"/>
      </g>
     </g>
     <g id="text_42">
      <!-- 1.0 -->
      <g transform="translate(1197.283438 347.038437) scale(0.1 -0.1)">
       <use xlink:href="#DejaVuSans-31"/>
       <use xlink:href="#DejaVuSans-2e" transform="translate(63.623047 0)"/>
       <use xlink:href="#DejaVuSans-30" transform="translate(95.410156 0)"/>
      </g>
     </g>
    </g>
    <g id="text_43">
     <!-- Threshold -->
     <g transform="translate(1006.284219 360.716563) scale(0.1 -0.1)">
      <use xlink:href="#DejaVuSans-54"/>
      <use xlink:href="#DejaVuSans-68" transform="translate(61.083984 0)"/>
      <use xlink:href="#DejaVuSans-72" transform="translate(124.462891 0)"/>
      <use xlink:href="#DejaVuSans-65" transform="translate(163.326172 0)"/>
      <use xlink:href="#DejaVuSans-73" transform="translate(224.849609 0)"/>
      <use xlink:href="#DejaVuSans-68" transform="translate(276.949219 0)"/>
      <use xlink:href="#DejaVuSans-6f" transform="translate(340.328125 0)"/>
      <use xlink:href="#DejaVuSans-6c" transform="translate(401.509766 0)"/>
      <use xlink:href="#DejaVuSans-64" transform="translate(429.292969 0)"/>
     </g>
    </g>
   </g>
   <g id="matplotlib.axis_6">
    <g id="ytick_13">
     <g id="line2d_40">
      <g>
       <use xlink:href="#m1896ab9b2c" x="856.61" y="332.44" style="stroke: #000000; stroke-width: 0.8"/>
      </g>
     </g>
     <g id="text_44">
      <!-- 0.0 -->
      <g transform="translate(833.706875 336.239219) scale(0.1 -0.1)">
       <use xlink:href="#DejaVuSans-30"/>
       <use xlink:href="#DejaVuSans-2e" transform="translate(63.623047 0)"/>
       <use xlink:href="#DejaVuSans-30" transform="translate(95.410156 0)"/>
      </g>
     </g>
    </g>
    <g id="ytick_14">
     <g id="line2d_41">
      <g>
       <use xlink:href="#m1896ab9b2c" x="856.61" y="280.29098" style="stroke: #000000; stroke-width: 0.8"/>
      </g>
     </g>
     <g id="text_45">
      <!-- 0.2 -->
      <g transform="translate(833.706875 284.090199) scale(0.1 -0.1)">
       <use xlink:href="#DejaVuSans-30"/>
       <use xlink:href="#DejaVuSans-2e" transform="translate(63.623047 0)"/>
       <use xlink:href="#DejaVuSans-32" transform="translate(95.410156 0)"/>
      </g>
     </g>
    </g>
    <g id="ytick_15">
     <g id="line2d_42">
      <g>
       <use xlink:href="#m1896ab9b2c" x="856.61" y="228.141961" style="stroke: #000000; stroke-width: 0.8"/>
      </g>
     </g>
     <g id="text_46">
      <!-- 0.4 -->
      <g transform="translate(833.706875 231.94118) scale(0.1 -0.1)">
       <use xlink:href="#DejaVuSans-30"/>
       <use xlink:href="#DejaVuSans-2e" transform="translate(63.623047 0)"/>
       <use xlink:href="#DejaVuSans-34" transform="translate(95.410156 0)"/>
      </g>
     </g>
    </g>
    <g id="ytick_16">
     <g id="line2d_43">
      <g>
       <use xlink:href="#m1896ab9b2c" x="856.61" y="175.992941" style="stroke: #000000; stroke-width: 0.8"/>
      </g>
     </g>
     <g id="text_47">
      <!-- 0.6 -->
      <g transform="translate(833.706875 179.79216) scale(0.1 -0.1)">
       <use xlink:href="#DejaVuSans-30"/>
       <use xlink:href="#DejaVuSans-2e" transform="translate(63.623047 0)"/>
       <use xlink:href="#DejaVuSans-36" transform="translate(95.410156 0)"/>
      </g>
     </g>
    </g>
    <g id="ytick_17">
     <g id="line2d_44">
      <g>
       <use xlink:href="#m1896ab9b2c" x="856.61" y="123.843922" style="stroke: #000000; stroke-width: 0.8"/>
      </g>
     </g>
     <g id="text_48">
      <!-- 0.8 -->
      <g transform="translate(833.706875 127.64314) scale(0.1 -0.1)">
       <use xlink:href="#DejaVuSans-30"/>
       <use xlink:href="#DejaVuSans-2e" transform="translate(63.623047 0)"/>
       <use xlink:href="#DejaVuSans-38" transform="translate(95.410156 0)"/>
      </g>
     </g>
    </g>
    <g id="ytick_18">
     <g id="line2d_45">
      <g>
       <use xlink:href="#m1896ab9b2c" x="856.61" y="71.694902" style="stroke: #000000; stroke-width: 0.8"/>
      </g>
     </g>
     <g id="text_49">
      <!-- 1.0 -->
      <g transform="translate(833.706875 75.494121) scale(0.1 -0.1)">
       <use xlink:href="#DejaVuSans-31"/>
       <use xlink:href="#DejaVuSans-2e" transform="translate(63.623047 0)"/>
       <use xlink:href="#DejaVuSans-30" transform="translate(95.410156 0)"/>
      </g>
     </g>
    </g>
    <g id="text_50">
     <!-- F1 -->
     <g transform="translate(827.627188 205.517031) rotate(-90) scale(0.1 -0.1)">
      <use xlink:href="#DejaVuSans-46"/>
      <use xlink:href="#DejaVuSans-31" transform="translate(57.519531 0)"/>
     </g>
    </g>
   </g>
   <g id="line2d_46">
    <path d="M 856.61 114.82567 
L 858.353125 114.552628 
L 860.09625 113.177077 
L 861.839375 110.9397 
L 863.5825 109.518003 
L 865.325625 106.32511 
L 867.06875 104.843361 
L 868.811875 103.944954 
L 870.555 102.901097 
L 874.04125 101.213215 
L 875.784375 100.901168 
L 877.5275 100.113986 
L 879.270625 100.113986 
L 881.01375 98.199211 
L 882.756875 97.55392 
L 884.5 97.229939 
L 887.98625 95.925029 
L 889.729375 95.992428 
L 893.215625 95.332882 
L 894.95875 94.336633 
L 896.701875 94.002687 
L 898.445 93.393013 
L 900.188125 93.393013 
L 903.674375 92.776421 
L 905.4175 93.176742 
L 907.160625 92.836396 
L 908.90375 92.836396 
L 910.646875 92.495081 
L 912.39 92.495081 
L 914.133125 91.809524 
L 915.87625 91.809524 
L 919.3625 91.120038 
L 921.105625 90.42659 
L 922.84875 90.828715 
L 924.591875 90.480572 
L 926.335 90.480572 
L 928.078125 90.883935 
L 929.82125 90.883935 
L 933.3075 90.184786 
L 938.536875 90.184786 
L 940.28 89.12844 
L 943.76625 89.12844 
L 948.995625 88.062842 
L 954.225 88.062842 
L 955.968125 87.705566 
L 957.71125 87.705566 
L 961.1975 86.98787 
L 962.940625 87.393212 
L 968.17 87.393212 
L 969.913125 87.032849 
L 971.65625 87.032849 
L 973.399375 87.847253 
L 982.115 87.847253 
L 983.858125 87.485964 
L 987.344375 87.579819 
L 989.0875 87.627166 
L 990.830625 88.040117 
L 992.57375 87.674796 
L 1006.51875 87.722712 
L 1008.261875 87.355268 
L 1013.49125 87.355268 
L 1016.9775 86.617061 
L 1032.665625 86.707499 
L 1034.40875 86.334612 
L 1036.151875 86.334612 
L 1037.895 86.75313 
L 1039.638125 86.799039 
L 1041.38125 86.424014 
L 1044.8675 86.424014 
L 1046.610625 86.845229 
L 1050.096875 86.845229 
L 1051.84 86.469127 
L 1053.583125 86.891702 
L 1055.32625 86.514516 
L 1057.069375 86.514516 
L 1058.8125 87.412149 
L 1060.555625 87.840109 
L 1067.528125 87.840109 
L 1069.27125 88.269397 
L 1071.014375 88.269397 
L 1072.7575 88.700017 
L 1074.500625 88.32095 
L 1076.24375 88.32095 
L 1077.986875 88.752992 
L 1081.473125 88.752992 
L 1083.21625 88.372826 
L 1093.675 88.372826 
L 1095.418125 88.042557 
L 1097.16125 88.042557 
L 1098.904375 88.477553 
L 1100.6475 88.477553 
L 1102.390625 88.913918 
L 1104.13375 88.913918 
L 1105.876875 89.351657 
L 1107.62 91.116486 
L 1109.363125 91.17824 
L 1111.10625 91.624464 
L 1112.849375 93.42366 
L 1116.335625 93.42366 
L 1118.07875 94.331936 
L 1119.821875 94.331936 
L 1121.565 94.788268 
L 1123.308125 95.705355 
L 1125.05125 95.705355 
L 1130.280625 97.092152 
L 1132.02375 98.492522 
L 1133.766875 98.962363 
L 1135.51 100.857183 
L 1137.253125 101.33479 
L 1138.99625 102.777099 
L 1140.739375 102.777099 
L 1142.4825 103.261058 
L 1144.225625 104.233808 
L 1145.96875 104.722614 
L 1147.711875 107.191293 
L 1149.455 107.690017 
L 1151.198125 108.692517 
L 1152.94125 108.692517 
L 1156.4275 113.95359 
L 1158.170625 113.95359 
L 1161.656875 119.269446 
L 1165.143125 121.448384 
L 1166.88625 123.102905 
L 1170.3725 127.804607 
L 1172.115625 131.866848 
L 1173.85875 134.832809 
L 1175.601875 135.432593 
L 1182.574375 150.831547 
L 1184.3175 152.15921 
L 1186.060625 155.524194 
L 1187.80375 160.003362 
L 1189.546875 163.193689 
L 1191.29 175.008997 
L 1193.033125 181.218962 
L 1196.519375 210.15954 
L 1198.2625 240.79197 
L 1200.005625 265.547279 
L 1201.74875 284.127557 
L 1203.491875 320.205626 
L 1205.235 332.44 
L 1205.235 332.44 
" clip-path="url(#p85b317d968)" style="fill: none; stroke: #cc78bc; stroke-width: 1.8; stroke-linecap: square"/>
   </g>
   <g id="line2d_47">
    <path d="M 856.61 121.300067 
L 858.353125 118.164325 
L 860.09625 108.172195 
L 861.839375 100.976437 
L 863.5825 98.474128 
L 865.325625 98.474128 
L 870.555 94.617548 
L 875.784375 94.617548 
L 877.5275 91.975076 
L 879.270625 92.202943 
L 881.01375 91.064538 
L 889.729375 91.064538 
L 891.4725 89.677323 
L 893.215625 89.677323 
L 894.95875 86.854501 
L 929.82125 86.854501 
L 931.564375 88.467978 
L 938.536875 88.467978 
L 940.28 87.032849 
L 978.62875 87.032849 
L 980.371875 88.666476 
L 1037.895 88.666476 
L 1039.638125 90.319552 
L 1044.8675 90.319552 
L 1046.610625 88.869729 
L 1098.904375 88.869729 
L 1100.6475 90.543945 
L 1154.684375 90.543945 
L 1156.4275 92.238455 
L 1168.629375 92.238455 
L 1170.3725 93.95363 
L 1172.115625 93.95363 
L 1173.85875 92.490523 
L 1175.601875 92.490523 
L 1177.345 94.228429 
L 1180.83125 94.228429 
L 1182.574375 92.748854 
L 1184.3175 92.748854 
L 1186.060625 99.928448 
L 1187.80375 103.657204 
L 1189.546875 104.503888 
L 1191.29 104.503888 
L 1193.033125 112.491754 
L 1196.519375 130.695618 
L 1198.2625 154.471124 
L 1200.005625 171.64719 
L 1201.74875 215.470236 
L 1203.491875 308.463439 
L 1205.235 332.44 
L 1205.235 332.44 
" clip-path="url(#p85b317d968)" style="fill: none; stroke-dasharray: 4.81,2.08; stroke-dashoffset: 0; stroke: #000000; stroke-opacity: 0.7; stroke-width: 1.3"/>
   </g>
   <g id="line2d_48">
    <path d="M 1037.397968 332.44 
L 1037.397968 66.48 
" clip-path="url(#p85b317d968)" style="fill: none; stroke-dasharray: 1.5,2.475; stroke-dashoffset: 0; stroke: #dc143c; stroke-width: 1.5"/>
   </g>
   <g id="patch_9">
    <path d="M 856.61 332.44 
L 856.61 66.48 
" style="fill: none; stroke: #000000; stroke-width: 1.2; stroke-linejoin: miter; stroke-linecap: square"/>
   </g>
   <g id="patch_10">
    <path d="M 856.61 332.44 
L 1205.235 332.44 
" style="fill: none; stroke: #000000; stroke-width: 1.2; stroke-linejoin: miter; stroke-linecap: square"/>
   </g>
   <g id="text_51">
    <!-- F1 vs Threshold -->
    <g transform="translate(983.5975 60.48) scale(0.12 -0.12)">
     <use xlink:href="#DejaVuSans-46"/>
     <use xlink:href="#DejaVuSans-31" transform="translate(57.519531 0)"/>
     <use xlink:href="#DejaVuSans-20" transform="translate(121.142578 0)"/>
     <use xlink:href="#DejaVuSans-76" transform="translate(152.929688 0)"/>
     <use xlink:href="#DejaVuSans-73" transform="translate(212.109375 0)"/>
     <use xlink:href="#DejaVuSans-20" transform="translate(264.208984 0)"/>
     <use xlink:href="#DejaVuSans-54" transform="translate(295.996094 0)"/>
     <use xlink:href="#DejaVuSans-68" transform="translate(357.080078 0)"/>
     <use xlink:href="#DejaVuSans-72" transform="translate(420.458984 0)"/>
     <use xlink:href="#DejaVuSans-65" transform="translate(459.322266 0)"/>
     <use xlink:href="#DejaVuSans-73" transform="translate(520.845703 0)"/>
     <use xlink:href="#DejaVuSans-68" transform="translate(572.945312 0)"/>
     <use xlink:href="#DejaVuSans-6f" transform="translate(636.324219 0)"/>
     <use xlink:href="#DejaVuSans-6c" transform="translate(697.505859 0)"/>
     <use xlink:href="#DejaVuSans-64" transform="translate(725.289062 0)"/>
    </g>
   </g>
   <g id="legend_3">
    <g id="line2d_49">
     <path d="M 863.81 297.29125 
L 871.81 297.29125 
L 879.81 297.29125 
" style="fill: none; stroke: #cc78bc; stroke-width: 1.8; stroke-linecap: square"/>
    </g>
    <g id="text_52">
     <!-- OOF F1 -->
     <g transform="translate(886.21 300.09125) scale(0.08 -0.08)">
      <use xlink:href="#DejaVuSans-4f"/>
      <use xlink:href="#DejaVuSans-4f" transform="translate(78.710938 0)"/>
      <use xlink:href="#DejaVuSans-46" transform="translate(157.421875 0)"/>
      <use xlink:href="#DejaVuSans-20" transform="translate(214.941406 0)"/>
      <use xlink:href="#DejaVuSans-46" transform="translate(246.728516 0)"/>
      <use xlink:href="#DejaVuSans-31" transform="translate(304.248047 0)"/>
     </g>
    </g>
    <g id="line2d_50">
     <path d="M 863.81 309.03375 
L 871.81 309.03375 
L 879.81 309.03375 
" style="fill: none; stroke-dasharray: 4.81,2.08; stroke-dashoffset: 0; stroke: #000000; stroke-opacity: 0.7; stroke-width: 1.3"/>
    </g>
    <g id="text_53">
     <!-- External F1 -->
     <g transform="translate(886.21 311.83375) scale(0.08 -0.08)">
      <use xlink:href="#DejaVuSans-45"/>
      <use xlink:href="#DejaVuSans-78" transform="translate(63.183594 0)"/>
      <use xlink:href="#DejaVuSans-74" transform="translate(122.363281 0)"/>
      <use xlink:href="#DejaVuSans-65" transform="translate(161.572266 0)"/>
      <use xlink:href="#DejaVuSans-72" transform="translate(223.095703 0)"/>
      <use xlink:href="#DejaVuSans-6e" transform="translate(262.458984 0)"/>
      <use xlink:href="#DejaVuSans-61" transform="translate(325.837891 0)"/>
      <use xlink:href="#DejaVuSans-6c" transform="translate(387.117188 0)"/>
      <use xlink:href="#DejaVuSans-20" transform="translate(414.900391 0)"/>
      <use xlink:href="#DejaVuSans-46" transform="translate(446.6875 0)"/>
      <use xlink:href="#DejaVuSans-31" transform="translate(504.207031 0)"/>
     </g>
    </g>
    <g id="line2d_51">
     <path d="M 863.81 320.77625 
L 871.81 320.77625 
L 879.81 320.77625 
" style="fill: none; stroke-dasharray: 1.5,2.475; stroke-dashoffset: 0; stroke: #dc143c; stroke-width: 1.5"/>
    </g>
    <g id="text_54">
     <!-- Locked thr=0.519 -->
     <g transform="translate(886.21 323.57625) scale(0.08 -0.08)">
      <defs>
       <path id="DejaVuSans-4c" d="M 628 4666 
L 1259 4666 
L 1259 531 
L 3531 531 
L 3531 0 
L 628 0 
L 628 4666 
z
" transform="scale(0.015625)"/>
       <path id="DejaVuSans-6b" d="M 581 4863 
L 1159 4863 
L 1159 1991 
L 2875 3500 
L 3609 3500 
L 1753 1863 
L 3688 0 
L 2938 0 
L 1159 1709 
L 1159 0 
L 581 0 
L 581 4863 
z
" transform="scale(0.015625)"/>
      </defs>
      <use xlink:href="#DejaVuSans-4c"/>
      <use xlink:href="#DejaVuSans-6f" transform="translate(53.962891 0)"/>
      <use xlink:href="#DejaVuSans-63" transform="translate(115.144531 0)"/>
      <use xlink:href="#DejaVuSans-6b" transform="translate(170.125 0)"/>
      <use xlink:href="#DejaVuSans-65" transform="translate(224.410156 0)"/>
      <use xlink:href="#DejaVuSans-64" transform="translate(285.933594 0)"/>
      <use xlink:href="#DejaVuSans-20" transform="translate(349.410156 0)"/>
      <use xlink:href="#DejaVuSans-74" transform="translate(381.197266 0)"/>
      <use xlink:href="#DejaVuSans-68" transform="translate(420.40625 0)"/>
      <use xlink:href="#DejaVuSans-72" transform="translate(483.785156 0)"/>
      <use xlink:href="#DejaVuSans-3d" transform="translate(524.898438 0)"/>
      <use xlink:href="#DejaVuSans-30" transform="translate(608.6875 0)"/>
      <use xlink:href="#DejaVuSans-2e" transform="translate(672.310547 0)"/>
      <use xlink:href="#DejaVuSans-35" transform="translate(704.097656 0)"/>
      <use xlink:href="#DejaVuSans-31" transform="translate(767.720703 0)"/>
      <use xlink:href="#DejaVuSans-39" transform="translate(831.34375 0)"/>
     </g>
    </g>
   </g>
  </g>
  <g id="text_55">
   <!-- Threshold Analysis | Seed=26 | Model=SVC -->
   <g transform="translate(481.325625 16.658625) scale(0.12 -0.12)">
    <defs>
     <path id="DejaVuSans-41" d="M 2188 4044 
L 1331 1722 
L 3047 1722 
L 2188 4044 
z
M 1831 4666 
L 2547 4666 
L 4325 0 
L 3669 0 
L 3244 1197 
L 1141 1197 
L 716 0 
L 50 0 
L 1831 4666 
z
" transform="scale(0.015625)"/>
     <path id="DejaVuSans-79" d="M 2059 -325 
Q 1816 -950 1584 -1140 
Q 1353 -1331 966 -1331 
L 506 -1331 
L 506 -850 
L 844 -850 
Q 1081 -850 1212 -737 
Q 1344 -625 1503 -206 
L 1606 56 
L 191 3500 
L 800 3500 
L 1894 763 
L 2988 3500 
L 3597 3500 
L 2059 -325 
z
" transform="scale(0.015625)"/>
     <path id="DejaVuSans-7c" d="M 1344 4891 
L 1344 -1509 
L 813 -1509 
L 813 4891 
L 1344 4891 
z
" transform="scale(0.015625)"/>
     <path id="DejaVuSans-53" d="M 3425 4513 
L 3425 3897 
Q 3066 4069 2747 4153 
Q 2428 4238 2131 4238 
Q 1616 4238 1336 4038 
Q 1056 3838 1056 3469 
Q 1056 3159 1242 3001 
Q 1428 2844 1947 2747 
L 2328 2669 
Q 3034 2534 3370 2195 
Q 3706 1856 3706 1288 
Q 3706 609 3251 259 
Q 2797 -91 1919 -91 
Q 1588 -91 1214 -16 
Q 841 59 441 206 
L 441 856 
Q 825 641 1194 531 
Q 1563 422 1919 422 
Q 2459 422 2753 634 
Q 3047 847 3047 1241 
Q 3047 1584 2836 1778 
Q 2625 1972 2144 2069 
L 1759 2144 
Q 1053 2284 737 2584 
Q 422 2884 422 3419 
Q 422 4038 858 4394 
Q 1294 4750 2059 4750 
Q 2388 4750 2728 4690 
Q 3069 4631 3425 4513 
z
" transform="scale(0.015625)"/>
     <path id="DejaVuSans-56" d="M 1831 0 
L 50 4666 
L 709 4666 
L 2188 738 
L 3669 4666 
L 4325 4666 
L 2547 0 
L 1831 0 
z
" transform="scale(0.015625)"/>
    </defs>
    <use xlink:href="#DejaVuSans-54"/>
    <use xlink:href="#DejaVuSans-68" transform="translate(61.083984 0)"/>
    <use xlink:href="#DejaVuSans-72" transform="translate(124.462891 0)"/>
    <use xlink:href="#DejaVuSans-65" transform="translate(163.326172 0)"/>
    <use xlink:href="#DejaVuSans-73" transform="translate(224.849609 0)"/>
    <use xlink:href="#DejaVuSans-68" transform="translate(276.949219 0)"/>
    <use xlink:href="#DejaVuSans-6f" transform="translate(340.328125 0)"/>
    <use xlink:href="#DejaVuSans-6c" transform="translate(401.509766 0)"/>
    <use xlink:href="#DejaVuSans-64" transform="translate(429.292969 0)"/>
    <use xlink:href="#DejaVuSans-20" transform="translate(492.769531 0)"/>
    <use xlink:href="#DejaVuSans-41" transform="translate(524.556641 0)"/>
    <use xlink:href="#DejaVuSans-6e" transform="translate(592.964844 0)"/>
    <use xlink:href="#DejaVuSans-61" transform="translate(656.34375 0)"/>
    <use xlink:href="#DejaVuSans-6c" transform="translate(717.623047 0)"/>
    <use xlink:href="#DejaVuSans-79" transform="translate(745.40625 0)"/>
    <use xlink:href="#DejaVuSans-73" transform="translate(804.585938 0)"/>
    <use xlink:href="#DejaVuSans-69" transform="translate(856.685547 0)"/>
    <use xlink:href="#DejaVuSans-73" transform="translate(884.46875 0)"/>
    <use xlink:href="#DejaVuSans-20" transform="translate(936.568359 0)"/>
    <use xlink:href="#DejaVuSans-7c" transform="translate(968.355469 0)"/>
    <use xlink:href="#DejaVuSans-20" transform="translate(1002.046875 0)"/>
    <use xlink:href="#DejaVuSans-53" transform="translate(1033.833984 0)"/>
    <use xlink:href="#DejaVuSans-65" transform="translate(1097.310547 0)"/>
    <use xlink:href="#DejaVuSans-65" transform="translate(1158.833984 0)"/>
    <use xlink:href="#DejaVuSans-64" transform="translate(1220.357422 0)"/>
    <use xlink:href="#DejaVuSans-3d" transform="translate(1283.833984 0)"/>
    <use xlink:href="#DejaVuSans-32" transform="translate(1367.623047 0)"/>
    <use xlink:href="#DejaVuSans-36" transform="translate(1431.246094 0)"/>
    <use xlink:href="#DejaVuSans-20" transform="translate(1494.869141 0)"/>
    <use xlink:href="#DejaVuSans-7c" transform="translate(1526.65625 0)"/>
    <use xlink:href="#DejaVuSans-20" transform="translate(1560.347656 0)"/>
    <use xlink:href="#DejaVuSans-4d" transform="translate(1592.134766 0)"/>
    <use xlink:href="#DejaVuSans-6f" transform="translate(1678.414062 0)"/>
    <use xlink:href="#DejaVuSans-64" transform="translate(1739.595703 0)"/>
    <use xlink:href="#DejaVuSans-65" transform="translate(1803.072266 0)"/>
    <use xlink:href="#DejaVuSans-6c" transform="translate(1864.595703 0)"/>
    <use xlink:href="#DejaVuSans-3d" transform="translate(1892.378906 0)"/>
    <use xlink:href="#DejaVuSans-53" transform="translate(1976.167969 0)"/>
    <use xlink:href="#DejaVuSans-56" transform="translate(2039.644531 0)"/>
    <use xlink:href="#DejaVuSans-43" transform="translate(2108.052734 0)"/>
   </g>
  </g>
 </g>
 <defs>
  <clipPath id="p9cf982b1e5">
   <rect x="47.81" y="66.48" width="348.625" height="265.96"/>
  </clipPath>
  <clipPath id="p60915b4438">
   <rect x="452.21" y="66.48" width="348.625" height="265.96"/>
  </clipPath>
  <clipPath id="p85b317d968">
   <rect x="856.61" y="66.48" width="348.625" height="265.96"/>
  </clipPath>
 </defs>
</svg>
